<mxfile host="app.diagrams.net" modified="2024-02-02T05:01:40.561Z" agent="Mozilla/5.0 (Windows NT 10.0; Win64; x64) AppleWebKit/537.36 (KHTML, like Gecko) Chrome/121.0.0.0 Safari/537.36" etag="kBvpeUlKW0cWbqPfibJa" version="23.1.1" type="device">
  <diagram id="R2lEEEUBdFMjLlhIrx00" name="Page-1">
    <mxGraphModel dx="880" dy="1629" grid="1" gridSize="10" guides="1" tooltips="1" connect="1" arrows="1" fold="1" page="1" pageScale="1" pageWidth="850" pageHeight="1100" math="0" shadow="0" extFonts="Permanent Marker^https://fonts.googleapis.com/css?family=Permanent+Marker">
      <root>
        <mxCell id="0" />
        <mxCell id="1" parent="0" />
        <mxCell id="Ye0PGRufBINhVk7FUN7i-6" value="" style="rhombus;whiteSpace=wrap;html=1;" parent="1" vertex="1">
          <mxGeometry x="240" y="40" width="80" height="80" as="geometry" />
        </mxCell>
        <mxCell id="Ye0PGRufBINhVk7FUN7i-7" value="&lt;font style=&quot;font-size: 12px;&quot;&gt;Tiene cuenta&lt;/font&gt;" style="text;strokeColor=none;fillColor=none;html=1;fontSize=24;fontStyle=1;verticalAlign=middle;align=center;" parent="1" vertex="1">
          <mxGeometry x="230" y="60" width="100" height="40" as="geometry" />
        </mxCell>
        <mxCell id="Ye0PGRufBINhVk7FUN7i-22" value="Inicio de sesión" style="swimlane;fontStyle=0;childLayout=stackLayout;horizontal=1;startSize=30;horizontalStack=0;resizeParent=1;resizeParentMax=0;resizeLast=0;collapsible=1;marginBottom=0;whiteSpace=wrap;html=1;" parent="1" vertex="1">
          <mxGeometry x="20" y="20" width="140" height="90" as="geometry" />
        </mxCell>
        <mxCell id="Ye0PGRufBINhVk7FUN7i-23" value="Nombre del usuario" style="text;strokeColor=none;fillColor=none;align=left;verticalAlign=middle;spacingLeft=4;spacingRight=4;overflow=hidden;points=[[0,0.5],[1,0.5]];portConstraint=eastwest;rotatable=0;whiteSpace=wrap;html=1;" parent="Ye0PGRufBINhVk7FUN7i-22" vertex="1">
          <mxGeometry y="30" width="140" height="30" as="geometry" />
        </mxCell>
        <mxCell id="Ye0PGRufBINhVk7FUN7i-24" value="Contraseña" style="text;strokeColor=none;fillColor=none;align=left;verticalAlign=middle;spacingLeft=4;spacingRight=4;overflow=hidden;points=[[0,0.5],[1,0.5]];portConstraint=eastwest;rotatable=0;whiteSpace=wrap;html=1;" parent="Ye0PGRufBINhVk7FUN7i-22" vertex="1">
          <mxGeometry y="60" width="140" height="30" as="geometry" />
        </mxCell>
        <mxCell id="Ye0PGRufBINhVk7FUN7i-26" value="" style="endArrow=classic;html=1;rounded=0;" parent="1" edge="1">
          <mxGeometry width="50" height="50" relative="1" as="geometry">
            <mxPoint x="160" y="79.5" as="sourcePoint" />
            <mxPoint x="240" y="80" as="targetPoint" />
          </mxGeometry>
        </mxCell>
        <mxCell id="Ye0PGRufBINhVk7FUN7i-27" value="" style="endArrow=classic;html=1;rounded=0;" parent="1" edge="1">
          <mxGeometry width="50" height="50" relative="1" as="geometry">
            <mxPoint x="320" y="79.5" as="sourcePoint" />
            <mxPoint x="400" y="79.5" as="targetPoint" />
          </mxGeometry>
        </mxCell>
        <mxCell id="Ye0PGRufBINhVk7FUN7i-31" value="" style="endArrow=classic;html=1;rounded=0;" parent="1" edge="1">
          <mxGeometry width="50" height="50" relative="1" as="geometry">
            <mxPoint x="279.5" y="120" as="sourcePoint" />
            <mxPoint x="279.5" y="180" as="targetPoint" />
          </mxGeometry>
        </mxCell>
        <mxCell id="Ye0PGRufBINhVk7FUN7i-32" value="&lt;font style=&quot;font-size: 12px;&quot;&gt;Si&lt;/font&gt;" style="text;strokeColor=none;fillColor=none;html=1;fontSize=24;fontStyle=1;verticalAlign=middle;align=center;" parent="1" vertex="1">
          <mxGeometry x="285" y="50" width="100" height="40" as="geometry" />
        </mxCell>
        <mxCell id="Ye0PGRufBINhVk7FUN7i-34" value="&lt;font style=&quot;font-size: 12px;&quot;&gt;No&lt;/font&gt;" style="text;strokeColor=none;fillColor=none;html=1;fontSize=24;fontStyle=1;verticalAlign=middle;align=center;" parent="1" vertex="1">
          <mxGeometry x="210" y="120" width="100" height="40" as="geometry" />
        </mxCell>
        <mxCell id="Ye0PGRufBINhVk7FUN7i-35" value="Crea una cuenta de registro" style="swimlane;fontStyle=0;childLayout=stackLayout;horizontal=1;startSize=30;horizontalStack=0;resizeParent=1;resizeParentMax=0;resizeLast=0;collapsible=1;marginBottom=0;whiteSpace=wrap;html=1;" parent="1" vertex="1">
          <mxGeometry x="180" y="180" width="190" height="150" as="geometry" />
        </mxCell>
        <mxCell id="Ye0PGRufBINhVk7FUN7i-36" value="Introduce tu nombre" style="text;strokeColor=none;fillColor=none;align=left;verticalAlign=middle;spacingLeft=4;spacingRight=4;overflow=hidden;points=[[0,0.5],[1,0.5]];portConstraint=eastwest;rotatable=0;whiteSpace=wrap;html=1;" parent="Ye0PGRufBINhVk7FUN7i-35" vertex="1">
          <mxGeometry y="30" width="190" height="30" as="geometry" />
        </mxCell>
        <mxCell id="Ye0PGRufBINhVk7FUN7i-37" value="Ingresa un correo electronico" style="text;strokeColor=none;fillColor=none;align=left;verticalAlign=middle;spacingLeft=4;spacingRight=4;overflow=hidden;points=[[0,0.5],[1,0.5]];portConstraint=eastwest;rotatable=0;whiteSpace=wrap;html=1;" parent="Ye0PGRufBINhVk7FUN7i-35" vertex="1">
          <mxGeometry y="60" width="190" height="30" as="geometry" />
        </mxCell>
        <mxCell id="Ye0PGRufBINhVk7FUN7i-38" value="Introduce una contraseña&lt;br&gt;" style="text;strokeColor=none;fillColor=none;align=left;verticalAlign=middle;spacingLeft=4;spacingRight=4;overflow=hidden;points=[[0,0.5],[1,0.5]];portConstraint=eastwest;rotatable=0;whiteSpace=wrap;html=1;" parent="Ye0PGRufBINhVk7FUN7i-35" vertex="1">
          <mxGeometry y="90" width="190" height="30" as="geometry" />
        </mxCell>
        <mxCell id="Ye0PGRufBINhVk7FUN7i-39" value="Introduce tu fecha de nacimineto" style="text;strokeColor=none;fillColor=none;align=left;verticalAlign=middle;spacingLeft=4;spacingRight=4;overflow=hidden;points=[[0,0.5],[1,0.5]];portConstraint=eastwest;rotatable=0;whiteSpace=wrap;html=1;" parent="Ye0PGRufBINhVk7FUN7i-35" vertex="1">
          <mxGeometry y="120" width="190" height="30" as="geometry" />
        </mxCell>
        <mxCell id="Ye0PGRufBINhVk7FUN7i-41" value="Cliente" style="swimlane;fontStyle=0;childLayout=stackLayout;horizontal=1;startSize=30;horizontalStack=0;resizeParent=1;resizeParentMax=0;resizeLast=0;collapsible=1;marginBottom=0;whiteSpace=wrap;html=1;" parent="1" vertex="1">
          <mxGeometry x="400" y="35" width="140" height="180" as="geometry" />
        </mxCell>
        <mxCell id="Ye0PGRufBINhVk7FUN7i-142" value="" style="endArrow=classic;html=1;rounded=0;" parent="Ye0PGRufBINhVk7FUN7i-41" edge="1">
          <mxGeometry width="50" height="50" relative="1" as="geometry">
            <mxPoint x="70" y="-105" as="sourcePoint" />
            <mxPoint x="70" y="-5" as="targetPoint" />
          </mxGeometry>
        </mxCell>
        <mxCell id="Ye0PGRufBINhVk7FUN7i-44" value="Nombre" style="text;strokeColor=none;fillColor=none;align=left;verticalAlign=middle;spacingLeft=4;spacingRight=4;overflow=hidden;points=[[0,0.5],[1,0.5]];portConstraint=eastwest;rotatable=0;whiteSpace=wrap;html=1;" parent="Ye0PGRufBINhVk7FUN7i-41" vertex="1">
          <mxGeometry y="30" width="140" height="30" as="geometry" />
        </mxCell>
        <mxCell id="Ye0PGRufBINhVk7FUN7i-45" value="Telefono" style="text;strokeColor=none;fillColor=none;align=left;verticalAlign=middle;spacingLeft=4;spacingRight=4;overflow=hidden;points=[[0,0.5],[1,0.5]];portConstraint=eastwest;rotatable=0;whiteSpace=wrap;html=1;" parent="Ye0PGRufBINhVk7FUN7i-41" vertex="1">
          <mxGeometry y="60" width="140" height="30" as="geometry" />
        </mxCell>
        <mxCell id="Ye0PGRufBINhVk7FUN7i-46" value="Correo electrónico" style="text;strokeColor=none;fillColor=none;align=left;verticalAlign=middle;spacingLeft=4;spacingRight=4;overflow=hidden;points=[[0,0.5],[1,0.5]];portConstraint=eastwest;rotatable=0;whiteSpace=wrap;html=1;" parent="Ye0PGRufBINhVk7FUN7i-41" vertex="1">
          <mxGeometry y="90" width="140" height="30" as="geometry" />
        </mxCell>
        <mxCell id="Ye0PGRufBINhVk7FUN7i-48" value="Contraseña" style="text;strokeColor=none;fillColor=none;align=left;verticalAlign=middle;spacingLeft=4;spacingRight=4;overflow=hidden;points=[[0,0.5],[1,0.5]];portConstraint=eastwest;rotatable=0;whiteSpace=wrap;html=1;" parent="Ye0PGRufBINhVk7FUN7i-41" vertex="1">
          <mxGeometry y="120" width="140" height="30" as="geometry" />
        </mxCell>
        <mxCell id="Ye0PGRufBINhVk7FUN7i-49" value="Dirección" style="text;strokeColor=none;fillColor=none;align=left;verticalAlign=middle;spacingLeft=4;spacingRight=4;overflow=hidden;points=[[0,0.5],[1,0.5]];portConstraint=eastwest;rotatable=0;whiteSpace=wrap;html=1;" parent="Ye0PGRufBINhVk7FUN7i-41" vertex="1">
          <mxGeometry y="150" width="140" height="30" as="geometry" />
        </mxCell>
        <mxCell id="Ye0PGRufBINhVk7FUN7i-50" value="" style="endArrow=classic;html=1;rounded=0;" parent="1" edge="1">
          <mxGeometry width="50" height="50" relative="1" as="geometry">
            <mxPoint x="540" y="80" as="sourcePoint" />
            <mxPoint x="610" y="80" as="targetPoint" />
          </mxGeometry>
        </mxCell>
        <mxCell id="Ye0PGRufBINhVk7FUN7i-51" value="" style="rhombus;whiteSpace=wrap;html=1;" parent="1" vertex="1">
          <mxGeometry x="610" y="40" width="80" height="80" as="geometry" />
        </mxCell>
        <mxCell id="Ye0PGRufBINhVk7FUN7i-52" value="&lt;font style=&quot;font-size: 12px;&quot;&gt;Hace&lt;/font&gt;" style="text;strokeColor=none;fillColor=none;html=1;fontSize=24;fontStyle=1;verticalAlign=middle;align=center;" parent="1" vertex="1">
          <mxGeometry x="600" y="60" width="100" height="40" as="geometry" />
        </mxCell>
        <mxCell id="Ye0PGRufBINhVk7FUN7i-53" value="Pedido" style="swimlane;fontStyle=0;childLayout=stackLayout;horizontal=1;startSize=30;horizontalStack=0;resizeParent=1;resizeParentMax=0;resizeLast=0;collapsible=1;marginBottom=0;whiteSpace=wrap;html=1;" parent="1" vertex="1">
          <mxGeometry x="700" y="160" width="140" height="240" as="geometry" />
        </mxCell>
        <mxCell id="Ye0PGRufBINhVk7FUN7i-54" value="Fecha_del_pedido" style="text;strokeColor=none;fillColor=none;align=left;verticalAlign=middle;spacingLeft=4;spacingRight=4;overflow=hidden;points=[[0,0.5],[1,0.5]];portConstraint=eastwest;rotatable=0;whiteSpace=wrap;html=1;" parent="Ye0PGRufBINhVk7FUN7i-53" vertex="1">
          <mxGeometry y="30" width="140" height="30" as="geometry" />
        </mxCell>
        <mxCell id="Ye0PGRufBINhVk7FUN7i-55" value="Fecha_de_entrega" style="text;strokeColor=none;fillColor=none;align=left;verticalAlign=middle;spacingLeft=4;spacingRight=4;overflow=hidden;points=[[0,0.5],[1,0.5]];portConstraint=eastwest;rotatable=0;whiteSpace=wrap;html=1;" parent="Ye0PGRufBINhVk7FUN7i-53" vertex="1">
          <mxGeometry y="60" width="140" height="30" as="geometry" />
        </mxCell>
        <mxCell id="Ye0PGRufBINhVk7FUN7i-58" value="Nombre y apellido" style="text;strokeColor=none;fillColor=none;align=left;verticalAlign=middle;spacingLeft=4;spacingRight=4;overflow=hidden;points=[[0,0.5],[1,0.5]];portConstraint=eastwest;rotatable=0;whiteSpace=wrap;html=1;" parent="Ye0PGRufBINhVk7FUN7i-53" vertex="1">
          <mxGeometry y="90" width="140" height="30" as="geometry" />
        </mxCell>
        <mxCell id="Ye0PGRufBINhVk7FUN7i-59" value="Teléfono" style="text;strokeColor=none;fillColor=none;align=left;verticalAlign=middle;spacingLeft=4;spacingRight=4;overflow=hidden;points=[[0,0.5],[1,0.5]];portConstraint=eastwest;rotatable=0;whiteSpace=wrap;html=1;" parent="Ye0PGRufBINhVk7FUN7i-53" vertex="1">
          <mxGeometry y="120" width="140" height="30" as="geometry" />
        </mxCell>
        <mxCell id="Ye0PGRufBINhVk7FUN7i-60" value="Dirección" style="text;strokeColor=none;fillColor=none;align=left;verticalAlign=middle;spacingLeft=4;spacingRight=4;overflow=hidden;points=[[0,0.5],[1,0.5]];portConstraint=eastwest;rotatable=0;whiteSpace=wrap;html=1;" parent="Ye0PGRufBINhVk7FUN7i-53" vertex="1">
          <mxGeometry y="150" width="140" height="30" as="geometry" />
        </mxCell>
        <mxCell id="Ye0PGRufBINhVk7FUN7i-61" value="Forma de pago" style="text;strokeColor=none;fillColor=none;align=left;verticalAlign=middle;spacingLeft=4;spacingRight=4;overflow=hidden;points=[[0,0.5],[1,0.5]];portConstraint=eastwest;rotatable=0;whiteSpace=wrap;html=1;" parent="Ye0PGRufBINhVk7FUN7i-53" vertex="1">
          <mxGeometry y="180" width="140" height="30" as="geometry" />
        </mxCell>
        <mxCell id="Ye0PGRufBINhVk7FUN7i-113" value="" style="endArrow=classic;html=1;rounded=0;" parent="Ye0PGRufBINhVk7FUN7i-53" edge="1">
          <mxGeometry width="50" height="50" relative="1" as="geometry">
            <mxPoint x="60" y="250" as="sourcePoint" />
            <mxPoint x="60" y="310" as="targetPoint" />
          </mxGeometry>
        </mxCell>
        <mxCell id="Ye0PGRufBINhVk7FUN7i-62" value="Total a pagar" style="text;strokeColor=none;fillColor=none;align=left;verticalAlign=middle;spacingLeft=4;spacingRight=4;overflow=hidden;points=[[0,0.5],[1,0.5]];portConstraint=eastwest;rotatable=0;whiteSpace=wrap;html=1;" parent="Ye0PGRufBINhVk7FUN7i-53" vertex="1">
          <mxGeometry y="210" width="140" height="30" as="geometry" />
        </mxCell>
        <mxCell id="Ye0PGRufBINhVk7FUN7i-63" value="" style="endArrow=classic;html=1;rounded=0;" parent="1" edge="1">
          <mxGeometry width="50" height="50" relative="1" as="geometry">
            <mxPoint x="800" y="90" as="sourcePoint" />
            <mxPoint x="800" y="155" as="targetPoint" />
          </mxGeometry>
        </mxCell>
        <mxCell id="Ye0PGRufBINhVk7FUN7i-64" value="" style="endArrow=none;html=1;rounded=0;" parent="1" edge="1">
          <mxGeometry width="50" height="50" relative="1" as="geometry">
            <mxPoint x="690" y="85" as="sourcePoint" />
            <mxPoint x="800" y="85" as="targetPoint" />
          </mxGeometry>
        </mxCell>
        <mxCell id="Ye0PGRufBINhVk7FUN7i-66" value="" style="endArrow=classic;html=1;rounded=0;" parent="1" edge="1">
          <mxGeometry width="50" height="50" relative="1" as="geometry">
            <mxPoint x="619.5" y="220" as="sourcePoint" />
            <mxPoint x="619.5" y="280" as="targetPoint" />
          </mxGeometry>
        </mxCell>
        <mxCell id="Ye0PGRufBINhVk7FUN7i-67" value="Forma de pago" style="swimlane;fontStyle=0;childLayout=stackLayout;horizontal=1;startSize=30;horizontalStack=0;resizeParent=1;resizeParentMax=0;resizeLast=0;collapsible=1;marginBottom=0;whiteSpace=wrap;html=1;" parent="1" vertex="1">
          <mxGeometry x="540" y="280" width="140" height="120" as="geometry" />
        </mxCell>
        <mxCell id="Ye0PGRufBINhVk7FUN7i-68" value="Factura" style="text;strokeColor=none;fillColor=none;align=left;verticalAlign=middle;spacingLeft=4;spacingRight=4;overflow=hidden;points=[[0,0.5],[1,0.5]];portConstraint=eastwest;rotatable=0;whiteSpace=wrap;html=1;" parent="Ye0PGRufBINhVk7FUN7i-67" vertex="1">
          <mxGeometry y="30" width="140" height="30" as="geometry" />
        </mxCell>
        <mxCell id="Ye0PGRufBINhVk7FUN7i-69" value="Ticket" style="text;strokeColor=none;fillColor=none;align=left;verticalAlign=middle;spacingLeft=4;spacingRight=4;overflow=hidden;points=[[0,0.5],[1,0.5]];portConstraint=eastwest;rotatable=0;whiteSpace=wrap;html=1;" parent="Ye0PGRufBINhVk7FUN7i-67" vertex="1">
          <mxGeometry y="60" width="140" height="30" as="geometry" />
        </mxCell>
        <mxCell id="Ye0PGRufBINhVk7FUN7i-71" value="Tarjeta de crédito" style="text;strokeColor=none;fillColor=none;align=left;verticalAlign=middle;spacingLeft=4;spacingRight=4;overflow=hidden;points=[[0,0.5],[1,0.5]];portConstraint=eastwest;rotatable=0;whiteSpace=wrap;html=1;" parent="Ye0PGRufBINhVk7FUN7i-67" vertex="1">
          <mxGeometry y="90" width="140" height="30" as="geometry" />
        </mxCell>
        <mxCell id="Ye0PGRufBINhVk7FUN7i-73" value="Pago" style="rhombus;whiteSpace=wrap;html=1;" parent="1" vertex="1">
          <mxGeometry x="360" y="410" width="80" height="80" as="geometry" />
        </mxCell>
        <mxCell id="Ye0PGRufBINhVk7FUN7i-74" value="Factura" style="swimlane;fontStyle=0;childLayout=stackLayout;horizontal=1;startSize=30;horizontalStack=0;resizeParent=1;resizeParentMax=0;resizeLast=0;collapsible=1;marginBottom=0;whiteSpace=wrap;html=1;" parent="1" vertex="1">
          <mxGeometry x="500" y="430" width="140" height="330" as="geometry" />
        </mxCell>
        <mxCell id="Ye0PGRufBINhVk7FUN7i-75" value="Nombre y apellido." style="text;strokeColor=none;fillColor=none;align=left;verticalAlign=middle;spacingLeft=4;spacingRight=4;overflow=hidden;points=[[0,0.5],[1,0.5]];portConstraint=eastwest;rotatable=0;whiteSpace=wrap;html=1;" parent="Ye0PGRufBINhVk7FUN7i-74" vertex="1">
          <mxGeometry y="30" width="140" height="30" as="geometry" />
        </mxCell>
        <mxCell id="Ye0PGRufBINhVk7FUN7i-76" value="Teléfono" style="text;strokeColor=none;fillColor=none;align=left;verticalAlign=middle;spacingLeft=4;spacingRight=4;overflow=hidden;points=[[0,0.5],[1,0.5]];portConstraint=eastwest;rotatable=0;whiteSpace=wrap;html=1;" parent="Ye0PGRufBINhVk7FUN7i-74" vertex="1">
          <mxGeometry y="60" width="140" height="30" as="geometry" />
        </mxCell>
        <mxCell id="Ye0PGRufBINhVk7FUN7i-77" value="Dirección" style="text;strokeColor=none;fillColor=none;align=left;verticalAlign=middle;spacingLeft=4;spacingRight=4;overflow=hidden;points=[[0,0.5],[1,0.5]];portConstraint=eastwest;rotatable=0;whiteSpace=wrap;html=1;" parent="Ye0PGRufBINhVk7FUN7i-74" vertex="1">
          <mxGeometry y="90" width="140" height="30" as="geometry" />
        </mxCell>
        <mxCell id="Ye0PGRufBINhVk7FUN7i-78" value="Descripción" style="text;strokeColor=none;fillColor=none;align=left;verticalAlign=middle;spacingLeft=4;spacingRight=4;overflow=hidden;points=[[0,0.5],[1,0.5]];portConstraint=eastwest;rotatable=0;whiteSpace=wrap;html=1;" parent="Ye0PGRufBINhVk7FUN7i-74" vertex="1">
          <mxGeometry y="120" width="140" height="30" as="geometry" />
        </mxCell>
        <mxCell id="Ye0PGRufBINhVk7FUN7i-79" value="Precio" style="text;strokeColor=none;fillColor=none;align=left;verticalAlign=middle;spacingLeft=4;spacingRight=4;overflow=hidden;points=[[0,0.5],[1,0.5]];portConstraint=eastwest;rotatable=0;whiteSpace=wrap;html=1;" parent="Ye0PGRufBINhVk7FUN7i-74" vertex="1">
          <mxGeometry y="150" width="140" height="30" as="geometry" />
        </mxCell>
        <mxCell id="Ye0PGRufBINhVk7FUN7i-80" value="Cantidad" style="text;strokeColor=none;fillColor=none;align=left;verticalAlign=middle;spacingLeft=4;spacingRight=4;overflow=hidden;points=[[0,0.5],[1,0.5]];portConstraint=eastwest;rotatable=0;whiteSpace=wrap;html=1;" parent="Ye0PGRufBINhVk7FUN7i-74" vertex="1">
          <mxGeometry y="180" width="140" height="30" as="geometry" />
        </mxCell>
        <mxCell id="Ye0PGRufBINhVk7FUN7i-81" value="Precio" style="text;strokeColor=none;fillColor=none;align=left;verticalAlign=middle;spacingLeft=4;spacingRight=4;overflow=hidden;points=[[0,0.5],[1,0.5]];portConstraint=eastwest;rotatable=0;whiteSpace=wrap;html=1;" parent="Ye0PGRufBINhVk7FUN7i-74" vertex="1">
          <mxGeometry y="210" width="140" height="30" as="geometry" />
        </mxCell>
        <mxCell id="Ye0PGRufBINhVk7FUN7i-82" value="Subtotal" style="text;strokeColor=none;fillColor=none;align=left;verticalAlign=middle;spacingLeft=4;spacingRight=4;overflow=hidden;points=[[0,0.5],[1,0.5]];portConstraint=eastwest;rotatable=0;whiteSpace=wrap;html=1;" parent="Ye0PGRufBINhVk7FUN7i-74" vertex="1">
          <mxGeometry y="240" width="140" height="30" as="geometry" />
        </mxCell>
        <mxCell id="Ye0PGRufBINhVk7FUN7i-83" value="Impuestos" style="text;strokeColor=none;fillColor=none;align=left;verticalAlign=middle;spacingLeft=4;spacingRight=4;overflow=hidden;points=[[0,0.5],[1,0.5]];portConstraint=eastwest;rotatable=0;whiteSpace=wrap;html=1;" parent="Ye0PGRufBINhVk7FUN7i-74" vertex="1">
          <mxGeometry y="270" width="140" height="30" as="geometry" />
        </mxCell>
        <mxCell id="Ye0PGRufBINhVk7FUN7i-84" value="Total" style="text;strokeColor=none;fillColor=none;align=left;verticalAlign=middle;spacingLeft=4;spacingRight=4;overflow=hidden;points=[[0,0.5],[1,0.5]];portConstraint=eastwest;rotatable=0;whiteSpace=wrap;html=1;" parent="Ye0PGRufBINhVk7FUN7i-74" vertex="1">
          <mxGeometry y="300" width="140" height="30" as="geometry" />
        </mxCell>
        <mxCell id="Ye0PGRufBINhVk7FUN7i-85" value="" style="endArrow=classic;html=1;rounded=0;" parent="1" edge="1">
          <mxGeometry width="50" height="50" relative="1" as="geometry">
            <mxPoint x="440" y="450" as="sourcePoint" />
            <mxPoint x="500" y="450" as="targetPoint" />
          </mxGeometry>
        </mxCell>
        <mxCell id="Ye0PGRufBINhVk7FUN7i-87" value="Ticket" style="swimlane;fontStyle=0;childLayout=stackLayout;horizontal=1;startSize=30;horizontalStack=0;resizeParent=1;resizeParentMax=0;resizeLast=0;collapsible=1;marginBottom=0;whiteSpace=wrap;html=1;" parent="1" vertex="1">
          <mxGeometry x="330" y="550" width="140" height="230" as="geometry" />
        </mxCell>
        <mxCell id="Ye0PGRufBINhVk7FUN7i-88" value="Descripción" style="text;strokeColor=none;fillColor=none;align=left;verticalAlign=middle;spacingLeft=4;spacingRight=4;overflow=hidden;points=[[0,0.5],[1,0.5]];portConstraint=eastwest;rotatable=0;whiteSpace=wrap;html=1;" parent="Ye0PGRufBINhVk7FUN7i-87" vertex="1">
          <mxGeometry y="30" width="140" height="30" as="geometry" />
        </mxCell>
        <mxCell id="Ye0PGRufBINhVk7FUN7i-89" value="Precio" style="text;strokeColor=none;fillColor=none;align=left;verticalAlign=middle;spacingLeft=4;spacingRight=4;overflow=hidden;points=[[0,0.5],[1,0.5]];portConstraint=eastwest;rotatable=0;whiteSpace=wrap;html=1;" parent="Ye0PGRufBINhVk7FUN7i-87" vertex="1">
          <mxGeometry y="60" width="140" height="30" as="geometry" />
        </mxCell>
        <mxCell id="Ye0PGRufBINhVk7FUN7i-90" value="Cantidad" style="text;strokeColor=none;fillColor=none;align=left;verticalAlign=middle;spacingLeft=4;spacingRight=4;overflow=hidden;points=[[0,0.5],[1,0.5]];portConstraint=eastwest;rotatable=0;whiteSpace=wrap;html=1;" parent="Ye0PGRufBINhVk7FUN7i-87" vertex="1">
          <mxGeometry y="90" width="140" height="30" as="geometry" />
        </mxCell>
        <mxCell id="Ye0PGRufBINhVk7FUN7i-91" value="Precio" style="text;strokeColor=none;fillColor=none;align=left;verticalAlign=middle;spacingLeft=4;spacingRight=4;overflow=hidden;points=[[0,0.5],[1,0.5]];portConstraint=eastwest;rotatable=0;whiteSpace=wrap;html=1;" parent="Ye0PGRufBINhVk7FUN7i-87" vertex="1">
          <mxGeometry y="120" width="140" height="30" as="geometry" />
        </mxCell>
        <mxCell id="Ye0PGRufBINhVk7FUN7i-92" value="Subtotal" style="text;strokeColor=none;fillColor=none;align=left;verticalAlign=middle;spacingLeft=4;spacingRight=4;overflow=hidden;points=[[0,0.5],[1,0.5]];portConstraint=eastwest;rotatable=0;whiteSpace=wrap;html=1;" parent="Ye0PGRufBINhVk7FUN7i-87" vertex="1">
          <mxGeometry y="150" width="140" height="30" as="geometry" />
        </mxCell>
        <mxCell id="Ye0PGRufBINhVk7FUN7i-93" value="Impuestos" style="text;strokeColor=none;fillColor=none;align=left;verticalAlign=middle;spacingLeft=4;spacingRight=4;overflow=hidden;points=[[0,0.5],[1,0.5]];portConstraint=eastwest;rotatable=0;whiteSpace=wrap;html=1;" parent="Ye0PGRufBINhVk7FUN7i-87" vertex="1">
          <mxGeometry y="180" width="140" height="30" as="geometry" />
        </mxCell>
        <mxCell id="Ye0PGRufBINhVk7FUN7i-94" value="Total" style="text;strokeColor=none;fillColor=none;align=left;verticalAlign=middle;spacingLeft=4;spacingRight=4;overflow=hidden;points=[[0,0.5],[1,0.5]];portConstraint=eastwest;rotatable=0;whiteSpace=wrap;html=1;" parent="Ye0PGRufBINhVk7FUN7i-87" vertex="1">
          <mxGeometry y="210" width="140" height="20" as="geometry" />
        </mxCell>
        <mxCell id="Ye0PGRufBINhVk7FUN7i-96" value="Tarjeta de crédito" style="swimlane;fontStyle=0;childLayout=stackLayout;horizontal=1;startSize=30;horizontalStack=0;resizeParent=1;resizeParentMax=0;resizeLast=0;collapsible=1;marginBottom=0;whiteSpace=wrap;html=1;" parent="1" vertex="1">
          <mxGeometry x="170" y="400" width="140" height="270" as="geometry" />
        </mxCell>
        <mxCell id="Ye0PGRufBINhVk7FUN7i-97" value="Nombre completo" style="text;strokeColor=none;fillColor=none;align=left;verticalAlign=middle;spacingLeft=4;spacingRight=4;overflow=hidden;points=[[0,0.5],[1,0.5]];portConstraint=eastwest;rotatable=0;whiteSpace=wrap;html=1;" parent="Ye0PGRufBINhVk7FUN7i-96" vertex="1">
          <mxGeometry y="30" width="140" height="30" as="geometry" />
        </mxCell>
        <mxCell id="Ye0PGRufBINhVk7FUN7i-99" value="Correo electrónico" style="text;strokeColor=none;fillColor=none;align=left;verticalAlign=middle;spacingLeft=4;spacingRight=4;overflow=hidden;points=[[0,0.5],[1,0.5]];portConstraint=eastwest;rotatable=0;whiteSpace=wrap;html=1;" parent="Ye0PGRufBINhVk7FUN7i-96" vertex="1">
          <mxGeometry y="60" width="140" height="30" as="geometry" />
        </mxCell>
        <mxCell id="Ye0PGRufBINhVk7FUN7i-100" value="Dirección" style="text;strokeColor=none;fillColor=none;align=left;verticalAlign=middle;spacingLeft=4;spacingRight=4;overflow=hidden;points=[[0,0.5],[1,0.5]];portConstraint=eastwest;rotatable=0;whiteSpace=wrap;html=1;" parent="Ye0PGRufBINhVk7FUN7i-96" vertex="1">
          <mxGeometry y="90" width="140" height="30" as="geometry" />
        </mxCell>
        <mxCell id="Ye0PGRufBINhVk7FUN7i-101" value="Ciudad" style="text;strokeColor=none;fillColor=none;align=left;verticalAlign=middle;spacingLeft=4;spacingRight=4;overflow=hidden;points=[[0,0.5],[1,0.5]];portConstraint=eastwest;rotatable=0;whiteSpace=wrap;html=1;" parent="Ye0PGRufBINhVk7FUN7i-96" vertex="1">
          <mxGeometry y="120" width="140" height="30" as="geometry" />
        </mxCell>
        <mxCell id="Ye0PGRufBINhVk7FUN7i-102" value="Estado" style="text;strokeColor=none;fillColor=none;align=left;verticalAlign=middle;spacingLeft=4;spacingRight=4;overflow=hidden;points=[[0,0.5],[1,0.5]];portConstraint=eastwest;rotatable=0;whiteSpace=wrap;html=1;" parent="Ye0PGRufBINhVk7FUN7i-96" vertex="1">
          <mxGeometry y="150" width="140" height="30" as="geometry" />
        </mxCell>
        <mxCell id="Ye0PGRufBINhVk7FUN7i-103" value="Código postal" style="text;strokeColor=none;fillColor=none;align=left;verticalAlign=middle;spacingLeft=4;spacingRight=4;overflow=hidden;points=[[0,0.5],[1,0.5]];portConstraint=eastwest;rotatable=0;whiteSpace=wrap;html=1;" parent="Ye0PGRufBINhVk7FUN7i-96" vertex="1">
          <mxGeometry y="180" width="140" height="30" as="geometry" />
        </mxCell>
        <mxCell id="Ye0PGRufBINhVk7FUN7i-105" value="Nombre en la tarjeta" style="text;strokeColor=none;fillColor=none;align=left;verticalAlign=middle;spacingLeft=4;spacingRight=4;overflow=hidden;points=[[0,0.5],[1,0.5]];portConstraint=eastwest;rotatable=0;whiteSpace=wrap;html=1;" parent="Ye0PGRufBINhVk7FUN7i-96" vertex="1">
          <mxGeometry y="210" width="140" height="30" as="geometry" />
        </mxCell>
        <mxCell id="Ye0PGRufBINhVk7FUN7i-106" value="Numero de tarjeta de crédito" style="text;strokeColor=none;fillColor=none;align=left;verticalAlign=middle;spacingLeft=4;spacingRight=4;overflow=hidden;points=[[0,0.5],[1,0.5]];portConstraint=eastwest;rotatable=0;whiteSpace=wrap;html=1;" parent="Ye0PGRufBINhVk7FUN7i-96" vertex="1">
          <mxGeometry y="240" width="140" height="30" as="geometry" />
        </mxCell>
        <mxCell id="Ye0PGRufBINhVk7FUN7i-72" value="" style="endArrow=classic;html=1;rounded=0;exitX=0;exitY=0;exitDx=0;exitDy=0;" parent="1" source="Ye0PGRufBINhVk7FUN7i-67" edge="1">
          <mxGeometry width="50" height="50" relative="1" as="geometry">
            <mxPoint x="510" y="280" as="sourcePoint" />
            <mxPoint x="400" y="410" as="targetPoint" />
            <Array as="points">
              <mxPoint x="470" y="280" />
              <mxPoint x="400" y="280" />
              <mxPoint x="400" y="310" />
              <mxPoint x="400" y="350" />
            </Array>
          </mxGeometry>
        </mxCell>
        <mxCell id="Ye0PGRufBINhVk7FUN7i-108" value="" style="endArrow=classic;html=1;rounded=0;" parent="1" edge="1">
          <mxGeometry width="50" height="50" relative="1" as="geometry">
            <mxPoint x="360" y="450" as="sourcePoint" />
            <mxPoint x="310" y="450" as="targetPoint" />
          </mxGeometry>
        </mxCell>
        <mxCell id="Ye0PGRufBINhVk7FUN7i-109" value="" style="endArrow=classic;html=1;rounded=0;exitX=0.5;exitY=1;exitDx=0;exitDy=0;" parent="1" source="Ye0PGRufBINhVk7FUN7i-73" edge="1">
          <mxGeometry width="50" height="50" relative="1" as="geometry">
            <mxPoint x="380" y="530" as="sourcePoint" />
            <mxPoint x="400" y="540" as="targetPoint" />
          </mxGeometry>
        </mxCell>
        <mxCell id="Ye0PGRufBINhVk7FUN7i-111" value="Realiza" style="rhombus;whiteSpace=wrap;html=1;" parent="1" vertex="1">
          <mxGeometry x="580" y="135" width="80" height="80" as="geometry" />
        </mxCell>
        <mxCell id="Ye0PGRufBINhVk7FUN7i-112" value="" style="endArrow=none;html=1;rounded=0;" parent="1" edge="1">
          <mxGeometry width="50" height="50" relative="1" as="geometry">
            <mxPoint x="650" y="160" as="sourcePoint" />
            <mxPoint x="700" y="160" as="targetPoint" />
          </mxGeometry>
        </mxCell>
        <mxCell id="Ye0PGRufBINhVk7FUN7i-114" value="&lt;font style=&quot;font-size: 12px;&quot;&gt;Cancelación de pedido&lt;/font&gt;" style="rhombus;whiteSpace=wrap;html=1;" parent="1" vertex="1">
          <mxGeometry x="720" y="470" width="80" height="80" as="geometry" />
        </mxCell>
        <mxCell id="Ye0PGRufBINhVk7FUN7i-117" value="" style="endArrow=classic;html=1;rounded=0;entryX=0.993;entryY=1.1;entryDx=0;entryDy=0;entryPerimeter=0;" parent="1" target="Ye0PGRufBINhVk7FUN7i-71" edge="1">
          <mxGeometry width="50" height="50" relative="1" as="geometry">
            <mxPoint x="720" y="510" as="sourcePoint" />
            <mxPoint x="770" y="460" as="targetPoint" />
            <Array as="points">
              <mxPoint x="679" y="510" />
            </Array>
          </mxGeometry>
        </mxCell>
        <mxCell id="Ye0PGRufBINhVk7FUN7i-116" value="&lt;font style=&quot;font-size: 12px;&quot;&gt;No&lt;/font&gt;" style="text;strokeColor=none;fillColor=none;html=1;fontSize=24;fontStyle=1;verticalAlign=middle;align=center;" parent="1" vertex="1">
          <mxGeometry x="630" y="480" width="140" height="40" as="geometry" />
        </mxCell>
        <mxCell id="Ye0PGRufBINhVk7FUN7i-118" value="&lt;font style=&quot;font-size: 12px;&quot;&gt;Si&lt;/font&gt;" style="text;strokeColor=none;fillColor=none;html=1;fontSize=24;fontStyle=1;verticalAlign=middle;align=center;" parent="1" vertex="1">
          <mxGeometry x="780" y="470" width="100" height="40" as="geometry" />
        </mxCell>
        <mxCell id="Ye0PGRufBINhVk7FUN7i-119" value="" style="endArrow=classic;html=1;rounded=0;" parent="1" edge="1">
          <mxGeometry width="50" height="50" relative="1" as="geometry">
            <mxPoint x="805" y="510" as="sourcePoint" />
            <mxPoint x="900" y="510" as="targetPoint" />
          </mxGeometry>
        </mxCell>
        <mxCell id="Ye0PGRufBINhVk7FUN7i-120" value="Devolución" style="swimlane;fontStyle=0;childLayout=stackLayout;horizontal=1;startSize=30;horizontalStack=0;resizeParent=1;resizeParentMax=0;resizeLast=0;collapsible=1;marginBottom=0;whiteSpace=wrap;html=1;" parent="1" vertex="1">
          <mxGeometry x="900" y="480" width="140" height="120" as="geometry" />
        </mxCell>
        <mxCell id="Ye0PGRufBINhVk7FUN7i-121" value="Cambio" style="text;strokeColor=none;fillColor=none;align=left;verticalAlign=middle;spacingLeft=4;spacingRight=4;overflow=hidden;points=[[0,0.5],[1,0.5]];portConstraint=eastwest;rotatable=0;whiteSpace=wrap;html=1;" parent="Ye0PGRufBINhVk7FUN7i-120" vertex="1">
          <mxGeometry y="30" width="140" height="30" as="geometry" />
        </mxCell>
        <mxCell id="Ye0PGRufBINhVk7FUN7i-123" value="Reembolso" style="text;strokeColor=none;fillColor=none;align=left;verticalAlign=middle;spacingLeft=4;spacingRight=4;overflow=hidden;points=[[0,0.5],[1,0.5]];portConstraint=eastwest;rotatable=0;whiteSpace=wrap;html=1;" parent="Ye0PGRufBINhVk7FUN7i-120" vertex="1">
          <mxGeometry y="60" width="140" height="30" as="geometry" />
        </mxCell>
        <mxCell id="Ye0PGRufBINhVk7FUN7i-124" value="Devolución" style="text;strokeColor=none;fillColor=none;align=left;verticalAlign=middle;spacingLeft=4;spacingRight=4;overflow=hidden;points=[[0,0.5],[1,0.5]];portConstraint=eastwest;rotatable=0;whiteSpace=wrap;html=1;" parent="Ye0PGRufBINhVk7FUN7i-120" vertex="1">
          <mxGeometry y="90" width="140" height="30" as="geometry" />
        </mxCell>
        <mxCell id="Ye0PGRufBINhVk7FUN7i-127" value="Procede a&amp;nbsp; realizar&amp;nbsp;" style="rhombus;whiteSpace=wrap;html=1;" parent="1" vertex="1">
          <mxGeometry x="40" y="160" width="80" height="80" as="geometry" />
        </mxCell>
        <mxCell id="Ye0PGRufBINhVk7FUN7i-128" value="" style="endArrow=none;html=1;rounded=0;exitX=1;exitY=0.5;exitDx=0;exitDy=0;entryX=-0.016;entryY=0.133;entryDx=0;entryDy=0;entryPerimeter=0;" parent="1" source="Ye0PGRufBINhVk7FUN7i-127" target="Ye0PGRufBINhVk7FUN7i-35" edge="1">
          <mxGeometry width="50" height="50" relative="1" as="geometry">
            <mxPoint x="130" y="295" as="sourcePoint" />
            <mxPoint x="180" y="245" as="targetPoint" />
          </mxGeometry>
        </mxCell>
        <mxCell id="Ye0PGRufBINhVk7FUN7i-129" value="" style="endArrow=classic;html=1;rounded=0;entryX=0.443;entryY=1.133;entryDx=0;entryDy=0;entryPerimeter=0;" parent="1" target="Ye0PGRufBINhVk7FUN7i-24" edge="1">
          <mxGeometry width="50" height="50" relative="1" as="geometry">
            <mxPoint x="80" y="160" as="sourcePoint" />
            <mxPoint x="130" y="110" as="targetPoint" />
          </mxGeometry>
        </mxCell>
        <mxCell id="Ye0PGRufBINhVk7FUN7i-130" value="" style="endArrow=classic;html=1;rounded=0;" parent="1" edge="1">
          <mxGeometry width="50" height="50" relative="1" as="geometry">
            <mxPoint x="840" y="185" as="sourcePoint" />
            <mxPoint x="920" y="185" as="targetPoint" />
          </mxGeometry>
        </mxCell>
        <mxCell id="Ye0PGRufBINhVk7FUN7i-131" value="Registra" style="rhombus;whiteSpace=wrap;html=1;" parent="1" vertex="1">
          <mxGeometry x="920" y="140" width="80" height="80" as="geometry" />
        </mxCell>
        <mxCell id="Ye0PGRufBINhVk7FUN7i-132" value="" style="endArrow=classic;html=1;rounded=0;" parent="1" edge="1">
          <mxGeometry width="50" height="50" relative="1" as="geometry">
            <mxPoint x="1000" y="180" as="sourcePoint" />
            <mxPoint x="1080" y="180" as="targetPoint" />
          </mxGeometry>
        </mxCell>
        <mxCell id="Ye0PGRufBINhVk7FUN7i-133" value="Inventario" style="swimlane;fontStyle=0;childLayout=stackLayout;horizontal=1;startSize=30;horizontalStack=0;resizeParent=1;resizeParentMax=0;resizeLast=0;collapsible=1;marginBottom=0;whiteSpace=wrap;html=1;" parent="1" vertex="1">
          <mxGeometry x="1080" y="160" width="170" height="270" as="geometry" />
        </mxCell>
        <mxCell id="Ye0PGRufBINhVk7FUN7i-134" value="Fecha&amp;nbsp;" style="text;strokeColor=none;fillColor=none;align=left;verticalAlign=middle;spacingLeft=4;spacingRight=4;overflow=hidden;points=[[0,0.5],[1,0.5]];portConstraint=eastwest;rotatable=0;whiteSpace=wrap;html=1;" parent="Ye0PGRufBINhVk7FUN7i-133" vertex="1">
          <mxGeometry y="30" width="170" height="30" as="geometry" />
        </mxCell>
        <mxCell id="Ye0PGRufBINhVk7FUN7i-138" value="Codigo" style="text;strokeColor=none;fillColor=none;align=left;verticalAlign=middle;spacingLeft=4;spacingRight=4;overflow=hidden;points=[[0,0.5],[1,0.5]];portConstraint=eastwest;rotatable=0;whiteSpace=wrap;html=1;" parent="Ye0PGRufBINhVk7FUN7i-133" vertex="1">
          <mxGeometry y="60" width="170" height="30" as="geometry" />
        </mxCell>
        <mxCell id="Ye0PGRufBINhVk7FUN7i-135" value="Descripcion del producto" style="text;strokeColor=none;fillColor=none;align=left;verticalAlign=middle;spacingLeft=4;spacingRight=4;overflow=hidden;points=[[0,0.5],[1,0.5]];portConstraint=eastwest;rotatable=0;whiteSpace=wrap;html=1;" parent="Ye0PGRufBINhVk7FUN7i-133" vertex="1">
          <mxGeometry y="90" width="170" height="30" as="geometry" />
        </mxCell>
        <mxCell id="Ye0PGRufBINhVk7FUN7i-136" value="Precio&amp;nbsp;" style="text;strokeColor=none;fillColor=none;align=left;verticalAlign=middle;spacingLeft=4;spacingRight=4;overflow=hidden;points=[[0,0.5],[1,0.5]];portConstraint=eastwest;rotatable=0;whiteSpace=wrap;html=1;" parent="Ye0PGRufBINhVk7FUN7i-133" vertex="1">
          <mxGeometry y="120" width="170" height="30" as="geometry" />
        </mxCell>
        <mxCell id="Ye0PGRufBINhVk7FUN7i-137" value="Cantidad que salieron" style="text;strokeColor=none;fillColor=none;align=left;verticalAlign=middle;spacingLeft=4;spacingRight=4;overflow=hidden;points=[[0,0.5],[1,0.5]];portConstraint=eastwest;rotatable=0;whiteSpace=wrap;html=1;" parent="Ye0PGRufBINhVk7FUN7i-133" vertex="1">
          <mxGeometry y="150" width="170" height="30" as="geometry" />
        </mxCell>
        <mxCell id="Ye0PGRufBINhVk7FUN7i-139" value="Perdidas del producto" style="text;strokeColor=none;fillColor=none;align=left;verticalAlign=middle;spacingLeft=4;spacingRight=4;overflow=hidden;points=[[0,0.5],[1,0.5]];portConstraint=eastwest;rotatable=0;whiteSpace=wrap;html=1;" parent="Ye0PGRufBINhVk7FUN7i-133" vertex="1">
          <mxGeometry y="180" width="170" height="30" as="geometry" />
        </mxCell>
        <mxCell id="Ye0PGRufBINhVk7FUN7i-140" value="Devolución de pedidos" style="text;strokeColor=none;fillColor=none;align=left;verticalAlign=middle;spacingLeft=4;spacingRight=4;overflow=hidden;points=[[0,0.5],[1,0.5]];portConstraint=eastwest;rotatable=0;whiteSpace=wrap;html=1;" parent="Ye0PGRufBINhVk7FUN7i-133" vertex="1">
          <mxGeometry y="210" width="170" height="30" as="geometry" />
        </mxCell>
        <mxCell id="Ye0PGRufBINhVk7FUN7i-141" value="Cancelación de pedidos" style="text;strokeColor=none;fillColor=none;align=left;verticalAlign=middle;spacingLeft=4;spacingRight=4;overflow=hidden;points=[[0,0.5],[1,0.5]];portConstraint=eastwest;rotatable=0;whiteSpace=wrap;html=1;" parent="Ye0PGRufBINhVk7FUN7i-133" vertex="1">
          <mxGeometry y="240" width="170" height="30" as="geometry" />
        </mxCell>
        <mxCell id="Ye0PGRufBINhVk7FUN7i-143" value="Necesita" style="rhombus;whiteSpace=wrap;html=1;" parent="1" vertex="1">
          <mxGeometry x="430" y="-150" width="80" height="80" as="geometry" />
        </mxCell>
        <mxCell id="Ye0PGRufBINhVk7FUN7i-145" value="" style="endArrow=classic;html=1;rounded=0;entryX=1;entryY=0.5;entryDx=0;entryDy=0;" parent="1" target="Ye0PGRufBINhVk7FUN7i-143" edge="1">
          <mxGeometry width="50" height="50" relative="1" as="geometry">
            <mxPoint x="620" y="-110" as="sourcePoint" />
            <mxPoint x="680" y="-140" as="targetPoint" />
          </mxGeometry>
        </mxCell>
        <mxCell id="Ye0PGRufBINhVk7FUN7i-146" value="Chocolateria Galidush" style="swimlane;fontStyle=0;childLayout=stackLayout;horizontal=1;startSize=30;horizontalStack=0;resizeParent=1;resizeParentMax=0;resizeLast=0;collapsible=1;marginBottom=0;whiteSpace=wrap;html=1;" parent="1" vertex="1">
          <mxGeometry x="620" y="-140" width="140" height="60" as="geometry" />
        </mxCell>
        <mxCell id="Ye0PGRufBINhVk7FUN7i-147" value="Productos" style="text;strokeColor=none;fillColor=none;align=left;verticalAlign=middle;spacingLeft=4;spacingRight=4;overflow=hidden;points=[[0,0.5],[1,0.5]];portConstraint=eastwest;rotatable=0;whiteSpace=wrap;html=1;" parent="Ye0PGRufBINhVk7FUN7i-146" vertex="1">
          <mxGeometry y="30" width="140" height="30" as="geometry" />
        </mxCell>
        <mxCell id="Ye0PGRufBINhVk7FUN7i-150" value="" style="endArrow=classic;html=1;rounded=0;" parent="1" edge="1">
          <mxGeometry width="50" height="50" relative="1" as="geometry">
            <mxPoint x="760" y="-130.5" as="sourcePoint" />
            <mxPoint x="840" y="-130.5" as="targetPoint" />
          </mxGeometry>
        </mxCell>
        <mxCell id="Ye0PGRufBINhVk7FUN7i-151" value="Tiene" style="rhombus;whiteSpace=wrap;html=1;" parent="1" vertex="1">
          <mxGeometry x="840" y="-170" width="80" height="80" as="geometry" />
        </mxCell>
        <mxCell id="Ye0PGRufBINhVk7FUN7i-153" value="" style="endArrow=classic;html=1;rounded=0;" parent="1" edge="1">
          <mxGeometry width="50" height="50" relative="1" as="geometry">
            <mxPoint x="925" y="-130.5" as="sourcePoint" />
            <mxPoint x="995" y="-130.5" as="targetPoint" />
          </mxGeometry>
        </mxCell>
        <mxCell id="Ye0PGRufBINhVk7FUN7i-155" value="Empleados" style="swimlane;fontStyle=0;childLayout=stackLayout;horizontal=1;startSize=30;horizontalStack=0;resizeParent=1;resizeParentMax=0;resizeLast=0;collapsible=1;marginBottom=0;whiteSpace=wrap;html=1;" parent="1" vertex="1">
          <mxGeometry x="1000" y="-160" width="140" height="270" as="geometry" />
        </mxCell>
        <mxCell id="Ye0PGRufBINhVk7FUN7i-226" value="" style="endArrow=classic;html=1;rounded=0;" parent="Ye0PGRufBINhVk7FUN7i-155" edge="1">
          <mxGeometry width="50" height="50" relative="1" as="geometry">
            <mxPoint x="60" y="-110" as="sourcePoint" />
            <mxPoint x="60" y="-10" as="targetPoint" />
          </mxGeometry>
        </mxCell>
        <mxCell id="Ye0PGRufBINhVk7FUN7i-158" value="Nombre" style="text;strokeColor=none;fillColor=none;align=left;verticalAlign=middle;spacingLeft=4;spacingRight=4;overflow=hidden;points=[[0,0.5],[1,0.5]];portConstraint=eastwest;rotatable=0;whiteSpace=wrap;html=1;" parent="Ye0PGRufBINhVk7FUN7i-155" vertex="1">
          <mxGeometry y="30" width="140" height="30" as="geometry" />
        </mxCell>
        <mxCell id="Ye0PGRufBINhVk7FUN7i-159" value="Apellido" style="text;strokeColor=none;fillColor=none;align=left;verticalAlign=middle;spacingLeft=4;spacingRight=4;overflow=hidden;points=[[0,0.5],[1,0.5]];portConstraint=eastwest;rotatable=0;whiteSpace=wrap;html=1;" parent="Ye0PGRufBINhVk7FUN7i-155" vertex="1">
          <mxGeometry y="60" width="140" height="30" as="geometry" />
        </mxCell>
        <mxCell id="Ye0PGRufBINhVk7FUN7i-164" value="R.F.C" style="text;strokeColor=none;fillColor=none;align=left;verticalAlign=middle;spacingLeft=4;spacingRight=4;overflow=hidden;points=[[0,0.5],[1,0.5]];portConstraint=eastwest;rotatable=0;whiteSpace=wrap;html=1;" parent="Ye0PGRufBINhVk7FUN7i-155" vertex="1">
          <mxGeometry y="90" width="140" height="30" as="geometry" />
        </mxCell>
        <mxCell id="Ye0PGRufBINhVk7FUN7i-165" value="Turno" style="text;strokeColor=none;fillColor=none;align=left;verticalAlign=middle;spacingLeft=4;spacingRight=4;overflow=hidden;points=[[0,0.5],[1,0.5]];portConstraint=eastwest;rotatable=0;whiteSpace=wrap;html=1;" parent="Ye0PGRufBINhVk7FUN7i-155" vertex="1">
          <mxGeometry y="120" width="140" height="30" as="geometry" />
        </mxCell>
        <mxCell id="Ye0PGRufBINhVk7FUN7i-163" value="Dirección" style="text;strokeColor=none;fillColor=none;align=left;verticalAlign=middle;spacingLeft=4;spacingRight=4;overflow=hidden;points=[[0,0.5],[1,0.5]];portConstraint=eastwest;rotatable=0;whiteSpace=wrap;html=1;" parent="Ye0PGRufBINhVk7FUN7i-155" vertex="1">
          <mxGeometry y="150" width="140" height="30" as="geometry" />
        </mxCell>
        <mxCell id="Ye0PGRufBINhVk7FUN7i-161" value="Correo electrónico" style="text;strokeColor=none;fillColor=none;align=left;verticalAlign=middle;spacingLeft=4;spacingRight=4;overflow=hidden;points=[[0,0.5],[1,0.5]];portConstraint=eastwest;rotatable=0;whiteSpace=wrap;html=1;" parent="Ye0PGRufBINhVk7FUN7i-155" vertex="1">
          <mxGeometry y="180" width="140" height="30" as="geometry" />
        </mxCell>
        <mxCell id="Ye0PGRufBINhVk7FUN7i-162" value="Teléfono" style="text;strokeColor=none;fillColor=none;align=left;verticalAlign=middle;spacingLeft=4;spacingRight=4;overflow=hidden;points=[[0,0.5],[1,0.5]];portConstraint=eastwest;rotatable=0;whiteSpace=wrap;html=1;" parent="Ye0PGRufBINhVk7FUN7i-155" vertex="1">
          <mxGeometry y="210" width="140" height="30" as="geometry" />
        </mxCell>
        <mxCell id="Ye0PGRufBINhVk7FUN7i-286" value="Pago" style="text;strokeColor=none;fillColor=none;align=left;verticalAlign=middle;spacingLeft=4;spacingRight=4;overflow=hidden;points=[[0,0.5],[1,0.5]];portConstraint=eastwest;rotatable=0;whiteSpace=wrap;html=1;" parent="Ye0PGRufBINhVk7FUN7i-155" vertex="1">
          <mxGeometry y="240" width="140" height="30" as="geometry" />
        </mxCell>
        <mxCell id="Ye0PGRufBINhVk7FUN7i-166" value="" style="endArrow=classic;html=1;rounded=0;" parent="1" edge="1">
          <mxGeometry width="50" height="50" relative="1" as="geometry">
            <mxPoint x="1140" y="-140" as="sourcePoint" />
            <mxPoint x="1230" y="-140" as="targetPoint" />
          </mxGeometry>
        </mxCell>
        <mxCell id="Ye0PGRufBINhVk7FUN7i-167" value="Suministra" style="rhombus;whiteSpace=wrap;html=1;" parent="1" vertex="1">
          <mxGeometry x="1230" y="-180" width="80" height="80" as="geometry" />
        </mxCell>
        <mxCell id="Ye0PGRufBINhVk7FUN7i-168" value="Proveedor" style="swimlane;fontStyle=0;childLayout=stackLayout;horizontal=1;startSize=30;horizontalStack=0;resizeParent=1;resizeParentMax=0;resizeLast=0;collapsible=1;marginBottom=0;whiteSpace=wrap;html=1;" parent="1" vertex="1">
          <mxGeometry x="1350" y="-160" width="140" height="180" as="geometry" />
        </mxCell>
        <mxCell id="Ye0PGRufBINhVk7FUN7i-169" value="Nombre" style="text;strokeColor=none;fillColor=none;align=left;verticalAlign=middle;spacingLeft=4;spacingRight=4;overflow=hidden;points=[[0,0.5],[1,0.5]];portConstraint=eastwest;rotatable=0;whiteSpace=wrap;html=1;" parent="Ye0PGRufBINhVk7FUN7i-168" vertex="1">
          <mxGeometry y="30" width="140" height="30" as="geometry" />
        </mxCell>
        <mxCell id="Ye0PGRufBINhVk7FUN7i-170" value="Id_producto" style="text;strokeColor=none;fillColor=none;align=left;verticalAlign=middle;spacingLeft=4;spacingRight=4;overflow=hidden;points=[[0,0.5],[1,0.5]];portConstraint=eastwest;rotatable=0;whiteSpace=wrap;html=1;" parent="Ye0PGRufBINhVk7FUN7i-168" vertex="1">
          <mxGeometry y="60" width="140" height="30" as="geometry" />
        </mxCell>
        <mxCell id="Ye0PGRufBINhVk7FUN7i-173" value="Dirección" style="text;strokeColor=none;fillColor=none;align=left;verticalAlign=middle;spacingLeft=4;spacingRight=4;overflow=hidden;points=[[0,0.5],[1,0.5]];portConstraint=eastwest;rotatable=0;whiteSpace=wrap;html=1;" parent="Ye0PGRufBINhVk7FUN7i-168" vertex="1">
          <mxGeometry y="90" width="140" height="30" as="geometry" />
        </mxCell>
        <mxCell id="Ye0PGRufBINhVk7FUN7i-171" value="Teléfono" style="text;strokeColor=none;fillColor=none;align=left;verticalAlign=middle;spacingLeft=4;spacingRight=4;overflow=hidden;points=[[0,0.5],[1,0.5]];portConstraint=eastwest;rotatable=0;whiteSpace=wrap;html=1;" parent="Ye0PGRufBINhVk7FUN7i-168" vertex="1">
          <mxGeometry y="120" width="140" height="30" as="geometry" />
        </mxCell>
        <mxCell id="Ye0PGRufBINhVk7FUN7i-174" value="Correo electrónico" style="text;strokeColor=none;fillColor=none;align=left;verticalAlign=middle;spacingLeft=4;spacingRight=4;overflow=hidden;points=[[0,0.5],[1,0.5]];portConstraint=eastwest;rotatable=0;whiteSpace=wrap;html=1;" parent="Ye0PGRufBINhVk7FUN7i-168" vertex="1">
          <mxGeometry y="150" width="140" height="30" as="geometry" />
        </mxCell>
        <mxCell id="Ye0PGRufBINhVk7FUN7i-172" value="" style="endArrow=classic;html=1;rounded=0;exitX=1;exitY=0.5;exitDx=0;exitDy=0;" parent="1" source="Ye0PGRufBINhVk7FUN7i-167" edge="1">
          <mxGeometry width="50" height="50" relative="1" as="geometry">
            <mxPoint x="1310" y="-130" as="sourcePoint" />
            <mxPoint x="1350" y="-140" as="targetPoint" />
            <Array as="points">
              <mxPoint x="1330" y="-140" />
            </Array>
          </mxGeometry>
        </mxCell>
        <mxCell id="Ye0PGRufBINhVk7FUN7i-175" value="" style="endArrow=classic;html=1;rounded=0;" parent="1" edge="1">
          <mxGeometry width="50" height="50" relative="1" as="geometry">
            <mxPoint x="1490" y="-140.5" as="sourcePoint" />
            <mxPoint x="1560" y="-140.5" as="targetPoint" />
          </mxGeometry>
        </mxCell>
        <mxCell id="Ye0PGRufBINhVk7FUN7i-176" value="Provee" style="rhombus;whiteSpace=wrap;html=1;" parent="1" vertex="1">
          <mxGeometry x="1560" y="-180" width="80" height="80" as="geometry" />
        </mxCell>
        <mxCell id="Ye0PGRufBINhVk7FUN7i-179" value="Producto" style="swimlane;fontStyle=0;childLayout=stackLayout;horizontal=1;startSize=30;horizontalStack=0;resizeParent=1;resizeParentMax=0;resizeLast=0;collapsible=1;marginBottom=0;whiteSpace=wrap;html=1;" parent="1" vertex="1">
          <mxGeometry x="1690" y="-200" width="140" height="180" as="geometry" />
        </mxCell>
        <mxCell id="Ye0PGRufBINhVk7FUN7i-181" value="Id_producto" style="text;strokeColor=none;fillColor=none;align=left;verticalAlign=middle;spacingLeft=4;spacingRight=4;overflow=hidden;points=[[0,0.5],[1,0.5]];portConstraint=eastwest;rotatable=0;whiteSpace=wrap;html=1;" parent="Ye0PGRufBINhVk7FUN7i-179" vertex="1">
          <mxGeometry y="30" width="140" height="30" as="geometry" />
        </mxCell>
        <mxCell id="Ye0PGRufBINhVk7FUN7i-180" value="Cantidad" style="text;strokeColor=none;fillColor=none;align=left;verticalAlign=middle;spacingLeft=4;spacingRight=4;overflow=hidden;points=[[0,0.5],[1,0.5]];portConstraint=eastwest;rotatable=0;whiteSpace=wrap;html=1;" parent="Ye0PGRufBINhVk7FUN7i-179" vertex="1">
          <mxGeometry y="60" width="140" height="30" as="geometry" />
        </mxCell>
        <mxCell id="Ye0PGRufBINhVk7FUN7i-183" value="Nombre" style="text;strokeColor=none;fillColor=none;align=left;verticalAlign=middle;spacingLeft=4;spacingRight=4;overflow=hidden;points=[[0,0.5],[1,0.5]];portConstraint=eastwest;rotatable=0;whiteSpace=wrap;html=1;" parent="Ye0PGRufBINhVk7FUN7i-179" vertex="1">
          <mxGeometry y="90" width="140" height="30" as="geometry" />
        </mxCell>
        <mxCell id="Ye0PGRufBINhVk7FUN7i-186" value="Descripción" style="text;strokeColor=none;fillColor=none;align=left;verticalAlign=middle;spacingLeft=4;spacingRight=4;overflow=hidden;points=[[0,0.5],[1,0.5]];portConstraint=eastwest;rotatable=0;whiteSpace=wrap;html=1;" parent="Ye0PGRufBINhVk7FUN7i-179" vertex="1">
          <mxGeometry y="120" width="140" height="30" as="geometry" />
        </mxCell>
        <mxCell id="Ye0PGRufBINhVk7FUN7i-187" value="Total" style="text;strokeColor=none;fillColor=none;align=left;verticalAlign=middle;spacingLeft=4;spacingRight=4;overflow=hidden;points=[[0,0.5],[1,0.5]];portConstraint=eastwest;rotatable=0;whiteSpace=wrap;html=1;" parent="Ye0PGRufBINhVk7FUN7i-179" vertex="1">
          <mxGeometry y="150" width="140" height="30" as="geometry" />
        </mxCell>
        <mxCell id="Ye0PGRufBINhVk7FUN7i-185" value="" style="endArrow=classic;html=1;rounded=0;entryX=-0.014;entryY=-0.033;entryDx=0;entryDy=0;entryPerimeter=0;" parent="1" target="Ye0PGRufBINhVk7FUN7i-180" edge="1">
          <mxGeometry width="50" height="50" relative="1" as="geometry">
            <mxPoint x="1640" y="-140" as="sourcePoint" />
            <mxPoint x="1690" y="-190" as="targetPoint" />
          </mxGeometry>
        </mxCell>
        <mxCell id="Ye0PGRufBINhVk7FUN7i-189" value="" style="endArrow=none;html=1;rounded=0;" parent="1" edge="1">
          <mxGeometry width="50" height="50" relative="1" as="geometry">
            <mxPoint x="1830" y="-180" as="sourcePoint" />
            <mxPoint x="1880" y="120" as="targetPoint" />
            <Array as="points">
              <mxPoint x="1880" y="-180" />
            </Array>
          </mxGeometry>
        </mxCell>
        <mxCell id="Ye0PGRufBINhVk7FUN7i-190" value="" style="endArrow=none;html=1;rounded=0;" parent="1" edge="1">
          <mxGeometry width="50" height="50" relative="1" as="geometry">
            <mxPoint x="920" y="120" as="sourcePoint" />
            <mxPoint x="1880" y="120" as="targetPoint" />
          </mxGeometry>
        </mxCell>
        <mxCell id="Ye0PGRufBINhVk7FUN7i-191" value="" style="endArrow=none;html=1;rounded=0;" parent="1" edge="1">
          <mxGeometry width="50" height="50" relative="1" as="geometry">
            <mxPoint x="920" y="120" as="sourcePoint" />
            <mxPoint x="920" y="-40" as="targetPoint" />
          </mxGeometry>
        </mxCell>
        <mxCell id="Ye0PGRufBINhVk7FUN7i-193" value="" style="endArrow=classic;html=1;rounded=0;" parent="1" edge="1">
          <mxGeometry width="50" height="50" relative="1" as="geometry">
            <mxPoint x="920" y="-40.5" as="sourcePoint" />
            <mxPoint x="785" y="-40.5" as="targetPoint" />
          </mxGeometry>
        </mxCell>
        <mxCell id="Ye0PGRufBINhVk7FUN7i-194" value="Compra" style="rhombus;whiteSpace=wrap;html=1;" parent="1" vertex="1">
          <mxGeometry x="700" y="-70" width="80" height="80" as="geometry" />
        </mxCell>
        <mxCell id="Ye0PGRufBINhVk7FUN7i-195" value="" style="endArrow=classic;html=1;rounded=0;" parent="1" edge="1">
          <mxGeometry width="50" height="50" relative="1" as="geometry">
            <mxPoint x="700" y="-30" as="sourcePoint" />
            <mxPoint x="470" y="-30" as="targetPoint" />
          </mxGeometry>
        </mxCell>
        <mxCell id="Ye0PGRufBINhVk7FUN7i-197" value="" style="endArrow=classic;html=1;rounded=0;" parent="1" edge="1">
          <mxGeometry width="50" height="50" relative="1" as="geometry">
            <mxPoint x="1250" y="180" as="sourcePoint" />
            <mxPoint x="1350" y="180" as="targetPoint" />
          </mxGeometry>
        </mxCell>
        <mxCell id="Ye0PGRufBINhVk7FUN7i-198" value="Es manejado&lt;br&gt;por" style="rhombus;whiteSpace=wrap;html=1;" parent="1" vertex="1">
          <mxGeometry x="1350" y="140" width="80" height="80" as="geometry" />
        </mxCell>
        <mxCell id="Ye0PGRufBINhVk7FUN7i-199" value="" style="endArrow=classic;html=1;rounded=0;" parent="1" edge="1">
          <mxGeometry width="50" height="50" relative="1" as="geometry">
            <mxPoint x="1430" y="180" as="sourcePoint" />
            <mxPoint x="1530" y="180" as="targetPoint" />
          </mxGeometry>
        </mxCell>
        <mxCell id="Ye0PGRufBINhVk7FUN7i-200" value="Administración" style="swimlane;fontStyle=0;childLayout=stackLayout;horizontal=1;startSize=30;horizontalStack=0;resizeParent=1;resizeParentMax=0;resizeLast=0;collapsible=1;marginBottom=0;whiteSpace=wrap;html=1;" parent="1" vertex="1">
          <mxGeometry x="1360" y="-590" width="140" height="210" as="geometry" />
        </mxCell>
        <mxCell id="Ye0PGRufBINhVk7FUN7i-205" value="No. de area" style="text;strokeColor=none;fillColor=none;align=left;verticalAlign=middle;spacingLeft=4;spacingRight=4;overflow=hidden;points=[[0,0.5],[1,0.5]];portConstraint=eastwest;rotatable=0;whiteSpace=wrap;html=1;" parent="Ye0PGRufBINhVk7FUN7i-200" vertex="1">
          <mxGeometry y="30" width="140" height="30" as="geometry" />
        </mxCell>
        <mxCell id="Ye0PGRufBINhVk7FUN7i-201" value="Nombre" style="text;strokeColor=none;fillColor=none;align=left;verticalAlign=middle;spacingLeft=4;spacingRight=4;overflow=hidden;points=[[0,0.5],[1,0.5]];portConstraint=eastwest;rotatable=0;whiteSpace=wrap;html=1;" parent="Ye0PGRufBINhVk7FUN7i-200" vertex="1">
          <mxGeometry y="60" width="140" height="30" as="geometry" />
        </mxCell>
        <mxCell id="Ye0PGRufBINhVk7FUN7i-203" value="Apellido" style="text;strokeColor=none;fillColor=none;align=left;verticalAlign=middle;spacingLeft=4;spacingRight=4;overflow=hidden;points=[[0,0.5],[1,0.5]];portConstraint=eastwest;rotatable=0;whiteSpace=wrap;html=1;" parent="Ye0PGRufBINhVk7FUN7i-200" vertex="1">
          <mxGeometry y="90" width="140" height="30" as="geometry" />
        </mxCell>
        <mxCell id="Ye0PGRufBINhVk7FUN7i-204" value="Turno" style="text;strokeColor=none;fillColor=none;align=left;verticalAlign=middle;spacingLeft=4;spacingRight=4;overflow=hidden;points=[[0,0.5],[1,0.5]];portConstraint=eastwest;rotatable=0;whiteSpace=wrap;html=1;" parent="Ye0PGRufBINhVk7FUN7i-200" vertex="1">
          <mxGeometry y="120" width="140" height="30" as="geometry" />
        </mxCell>
        <mxCell id="Ye0PGRufBINhVk7FUN7i-207" value="Dirección" style="text;strokeColor=none;fillColor=none;align=left;verticalAlign=middle;spacingLeft=4;spacingRight=4;overflow=hidden;points=[[0,0.5],[1,0.5]];portConstraint=eastwest;rotatable=0;whiteSpace=wrap;html=1;" parent="Ye0PGRufBINhVk7FUN7i-200" vertex="1">
          <mxGeometry y="150" width="140" height="30" as="geometry" />
        </mxCell>
        <mxCell id="Ye0PGRufBINhVk7FUN7i-206" value="Teléfono" style="text;strokeColor=none;fillColor=none;align=left;verticalAlign=middle;spacingLeft=4;spacingRight=4;overflow=hidden;points=[[0,0.5],[1,0.5]];portConstraint=eastwest;rotatable=0;whiteSpace=wrap;html=1;" parent="Ye0PGRufBINhVk7FUN7i-200" vertex="1">
          <mxGeometry y="180" width="140" height="30" as="geometry" />
        </mxCell>
        <mxCell id="Ye0PGRufBINhVk7FUN7i-215" value="" style="endArrow=classic;html=1;rounded=0;" parent="Ye0PGRufBINhVk7FUN7i-200" edge="1">
          <mxGeometry width="50" height="50" relative="1" as="geometry">
            <mxPoint x="70" y="220" as="sourcePoint" />
            <mxPoint x="70" y="270" as="targetPoint" />
          </mxGeometry>
        </mxCell>
        <mxCell id="Ye0PGRufBINhVk7FUN7i-208" value="Contadores" style="swimlane;fontStyle=0;childLayout=stackLayout;horizontal=1;startSize=30;horizontalStack=0;resizeParent=1;resizeParentMax=0;resizeLast=0;collapsible=1;marginBottom=0;whiteSpace=wrap;html=1;" parent="1" vertex="1">
          <mxGeometry x="1530" y="150" width="140" height="210" as="geometry" />
        </mxCell>
        <mxCell id="Ye0PGRufBINhVk7FUN7i-209" value="No. de area" style="text;strokeColor=none;fillColor=none;align=left;verticalAlign=middle;spacingLeft=4;spacingRight=4;overflow=hidden;points=[[0,0.5],[1,0.5]];portConstraint=eastwest;rotatable=0;whiteSpace=wrap;html=1;" parent="Ye0PGRufBINhVk7FUN7i-208" vertex="1">
          <mxGeometry y="30" width="140" height="30" as="geometry" />
        </mxCell>
        <mxCell id="Ye0PGRufBINhVk7FUN7i-210" value="Nombre" style="text;strokeColor=none;fillColor=none;align=left;verticalAlign=middle;spacingLeft=4;spacingRight=4;overflow=hidden;points=[[0,0.5],[1,0.5]];portConstraint=eastwest;rotatable=0;whiteSpace=wrap;html=1;" parent="Ye0PGRufBINhVk7FUN7i-208" vertex="1">
          <mxGeometry y="60" width="140" height="30" as="geometry" />
        </mxCell>
        <mxCell id="Ye0PGRufBINhVk7FUN7i-211" value="Apellido" style="text;strokeColor=none;fillColor=none;align=left;verticalAlign=middle;spacingLeft=4;spacingRight=4;overflow=hidden;points=[[0,0.5],[1,0.5]];portConstraint=eastwest;rotatable=0;whiteSpace=wrap;html=1;" parent="Ye0PGRufBINhVk7FUN7i-208" vertex="1">
          <mxGeometry y="90" width="140" height="30" as="geometry" />
        </mxCell>
        <mxCell id="Ye0PGRufBINhVk7FUN7i-212" value="Turno" style="text;strokeColor=none;fillColor=none;align=left;verticalAlign=middle;spacingLeft=4;spacingRight=4;overflow=hidden;points=[[0,0.5],[1,0.5]];portConstraint=eastwest;rotatable=0;whiteSpace=wrap;html=1;" parent="Ye0PGRufBINhVk7FUN7i-208" vertex="1">
          <mxGeometry y="120" width="140" height="30" as="geometry" />
        </mxCell>
        <mxCell id="Ye0PGRufBINhVk7FUN7i-213" value="Dirección" style="text;strokeColor=none;fillColor=none;align=left;verticalAlign=middle;spacingLeft=4;spacingRight=4;overflow=hidden;points=[[0,0.5],[1,0.5]];portConstraint=eastwest;rotatable=0;whiteSpace=wrap;html=1;" parent="Ye0PGRufBINhVk7FUN7i-208" vertex="1">
          <mxGeometry y="150" width="140" height="30" as="geometry" />
        </mxCell>
        <mxCell id="Ye0PGRufBINhVk7FUN7i-214" value="Teléfono" style="text;strokeColor=none;fillColor=none;align=left;verticalAlign=middle;spacingLeft=4;spacingRight=4;overflow=hidden;points=[[0,0.5],[1,0.5]];portConstraint=eastwest;rotatable=0;whiteSpace=wrap;html=1;" parent="Ye0PGRufBINhVk7FUN7i-208" vertex="1">
          <mxGeometry y="180" width="140" height="30" as="geometry" />
        </mxCell>
        <mxCell id="Ye0PGRufBINhVk7FUN7i-216" value="Se contacta" style="rhombus;whiteSpace=wrap;html=1;" parent="1" vertex="1">
          <mxGeometry x="1390" y="-320" width="80" height="80" as="geometry" />
        </mxCell>
        <mxCell id="Ye0PGRufBINhVk7FUN7i-217" value="" style="endArrow=classic;html=1;rounded=0;" parent="1" edge="1">
          <mxGeometry width="50" height="50" relative="1" as="geometry">
            <mxPoint x="1430" y="-240" as="sourcePoint" />
            <mxPoint x="1430" y="-170" as="targetPoint" />
          </mxGeometry>
        </mxCell>
        <mxCell id="Ye0PGRufBINhVk7FUN7i-218" value="" style="endArrow=classic;html=1;rounded=0;" parent="1" edge="1">
          <mxGeometry width="50" height="50" relative="1" as="geometry">
            <mxPoint x="1550" y="-280" as="sourcePoint" />
            <mxPoint x="1470" y="-280" as="targetPoint" />
          </mxGeometry>
        </mxCell>
        <mxCell id="Ye0PGRufBINhVk7FUN7i-219" value="Gerente" style="swimlane;fontStyle=0;childLayout=stackLayout;horizontal=1;startSize=30;horizontalStack=0;resizeParent=1;resizeParentMax=0;resizeLast=0;collapsible=1;marginBottom=0;whiteSpace=wrap;html=1;" parent="1" vertex="1">
          <mxGeometry x="1550" y="-430" width="140" height="210" as="geometry" />
        </mxCell>
        <mxCell id="Ye0PGRufBINhVk7FUN7i-220" value="No de area" style="text;strokeColor=none;fillColor=none;align=left;verticalAlign=middle;spacingLeft=4;spacingRight=4;overflow=hidden;points=[[0,0.5],[1,0.5]];portConstraint=eastwest;rotatable=0;whiteSpace=wrap;html=1;" parent="Ye0PGRufBINhVk7FUN7i-219" vertex="1">
          <mxGeometry y="30" width="140" height="30" as="geometry" />
        </mxCell>
        <mxCell id="Ye0PGRufBINhVk7FUN7i-221" value="Nombre" style="text;strokeColor=none;fillColor=none;align=left;verticalAlign=middle;spacingLeft=4;spacingRight=4;overflow=hidden;points=[[0,0.5],[1,0.5]];portConstraint=eastwest;rotatable=0;whiteSpace=wrap;html=1;" parent="Ye0PGRufBINhVk7FUN7i-219" vertex="1">
          <mxGeometry y="60" width="140" height="30" as="geometry" />
        </mxCell>
        <mxCell id="Ye0PGRufBINhVk7FUN7i-222" value="Apellido" style="text;strokeColor=none;fillColor=none;align=left;verticalAlign=middle;spacingLeft=4;spacingRight=4;overflow=hidden;points=[[0,0.5],[1,0.5]];portConstraint=eastwest;rotatable=0;whiteSpace=wrap;html=1;" parent="Ye0PGRufBINhVk7FUN7i-219" vertex="1">
          <mxGeometry y="90" width="140" height="30" as="geometry" />
        </mxCell>
        <mxCell id="Ye0PGRufBINhVk7FUN7i-223" value="Turno" style="text;strokeColor=none;fillColor=none;align=left;verticalAlign=middle;spacingLeft=4;spacingRight=4;overflow=hidden;points=[[0,0.5],[1,0.5]];portConstraint=eastwest;rotatable=0;whiteSpace=wrap;html=1;" parent="Ye0PGRufBINhVk7FUN7i-219" vertex="1">
          <mxGeometry y="120" width="140" height="30" as="geometry" />
        </mxCell>
        <mxCell id="Ye0PGRufBINhVk7FUN7i-224" value="Dirección" style="text;strokeColor=none;fillColor=none;align=left;verticalAlign=middle;spacingLeft=4;spacingRight=4;overflow=hidden;points=[[0,0.5],[1,0.5]];portConstraint=eastwest;rotatable=0;whiteSpace=wrap;html=1;" parent="Ye0PGRufBINhVk7FUN7i-219" vertex="1">
          <mxGeometry y="150" width="140" height="30" as="geometry" />
        </mxCell>
        <mxCell id="Ye0PGRufBINhVk7FUN7i-225" value="Telefono" style="text;strokeColor=none;fillColor=none;align=left;verticalAlign=middle;spacingLeft=4;spacingRight=4;overflow=hidden;points=[[0,0.5],[1,0.5]];portConstraint=eastwest;rotatable=0;whiteSpace=wrap;html=1;" parent="Ye0PGRufBINhVk7FUN7i-219" vertex="1">
          <mxGeometry y="180" width="140" height="30" as="geometry" />
        </mxCell>
        <mxCell id="Ye0PGRufBINhVk7FUN7i-227" value="Aceptado" style="rhombus;whiteSpace=wrap;html=1;" parent="1" vertex="1">
          <mxGeometry x="1020" y="-350" width="80" height="80" as="geometry" />
        </mxCell>
        <mxCell id="Ye0PGRufBINhVk7FUN7i-228" value="" style="endArrow=classic;html=1;rounded=0;entryX=0.5;entryY=0;entryDx=0;entryDy=0;exitX=0.429;exitY=1.333;exitDx=0;exitDy=0;exitPerimeter=0;" parent="1" source="Ye0PGRufBINhVk7FUN7i-246" target="Ye0PGRufBINhVk7FUN7i-227" edge="1">
          <mxGeometry width="50" height="50" relative="1" as="geometry">
            <mxPoint x="850" y="-490" as="sourcePoint" />
            <mxPoint x="1040" y="-390" as="targetPoint" />
            <Array as="points">
              <mxPoint x="850" y="-350" />
            </Array>
          </mxGeometry>
        </mxCell>
        <mxCell id="Ye0PGRufBINhVk7FUN7i-233" value="Gerente" style="swimlane;fontStyle=0;childLayout=stackLayout;horizontal=1;startSize=30;horizontalStack=0;resizeParent=1;resizeParentMax=0;resizeLast=0;collapsible=1;marginBottom=0;whiteSpace=wrap;html=1;" parent="1" vertex="1">
          <mxGeometry x="1550" y="-430" width="140" height="210" as="geometry" />
        </mxCell>
        <mxCell id="Ye0PGRufBINhVk7FUN7i-234" value="No de area" style="text;strokeColor=none;fillColor=none;align=left;verticalAlign=middle;spacingLeft=4;spacingRight=4;overflow=hidden;points=[[0,0.5],[1,0.5]];portConstraint=eastwest;rotatable=0;whiteSpace=wrap;html=1;" parent="Ye0PGRufBINhVk7FUN7i-233" vertex="1">
          <mxGeometry y="30" width="140" height="30" as="geometry" />
        </mxCell>
        <mxCell id="Ye0PGRufBINhVk7FUN7i-235" value="Nombre" style="text;strokeColor=none;fillColor=none;align=left;verticalAlign=middle;spacingLeft=4;spacingRight=4;overflow=hidden;points=[[0,0.5],[1,0.5]];portConstraint=eastwest;rotatable=0;whiteSpace=wrap;html=1;" parent="Ye0PGRufBINhVk7FUN7i-233" vertex="1">
          <mxGeometry y="60" width="140" height="30" as="geometry" />
        </mxCell>
        <mxCell id="Ye0PGRufBINhVk7FUN7i-236" value="Apellido" style="text;strokeColor=none;fillColor=none;align=left;verticalAlign=middle;spacingLeft=4;spacingRight=4;overflow=hidden;points=[[0,0.5],[1,0.5]];portConstraint=eastwest;rotatable=0;whiteSpace=wrap;html=1;" parent="Ye0PGRufBINhVk7FUN7i-233" vertex="1">
          <mxGeometry y="90" width="140" height="30" as="geometry" />
        </mxCell>
        <mxCell id="Ye0PGRufBINhVk7FUN7i-237" value="Turno" style="text;strokeColor=none;fillColor=none;align=left;verticalAlign=middle;spacingLeft=4;spacingRight=4;overflow=hidden;points=[[0,0.5],[1,0.5]];portConstraint=eastwest;rotatable=0;whiteSpace=wrap;html=1;" parent="Ye0PGRufBINhVk7FUN7i-233" vertex="1">
          <mxGeometry y="120" width="140" height="30" as="geometry" />
        </mxCell>
        <mxCell id="Ye0PGRufBINhVk7FUN7i-238" value="Dirección" style="text;strokeColor=none;fillColor=none;align=left;verticalAlign=middle;spacingLeft=4;spacingRight=4;overflow=hidden;points=[[0,0.5],[1,0.5]];portConstraint=eastwest;rotatable=0;whiteSpace=wrap;html=1;" parent="Ye0PGRufBINhVk7FUN7i-233" vertex="1">
          <mxGeometry y="150" width="140" height="30" as="geometry" />
        </mxCell>
        <mxCell id="Ye0PGRufBINhVk7FUN7i-239" value="Telefono" style="text;strokeColor=none;fillColor=none;align=left;verticalAlign=middle;spacingLeft=4;spacingRight=4;overflow=hidden;points=[[0,0.5],[1,0.5]];portConstraint=eastwest;rotatable=0;whiteSpace=wrap;html=1;" parent="Ye0PGRufBINhVk7FUN7i-233" vertex="1">
          <mxGeometry y="180" width="140" height="30" as="geometry" />
        </mxCell>
        <mxCell id="Ye0PGRufBINhVk7FUN7i-240" value="Recursos Humanos" style="swimlane;fontStyle=0;childLayout=stackLayout;horizontal=1;startSize=30;horizontalStack=0;resizeParent=1;resizeParentMax=0;resizeLast=0;collapsible=1;marginBottom=0;whiteSpace=wrap;html=1;" parent="1" vertex="1">
          <mxGeometry x="790" y="-800" width="140" height="210" as="geometry" />
        </mxCell>
        <mxCell id="Ye0PGRufBINhVk7FUN7i-241" value="No de area" style="text;strokeColor=none;fillColor=none;align=left;verticalAlign=middle;spacingLeft=4;spacingRight=4;overflow=hidden;points=[[0,0.5],[1,0.5]];portConstraint=eastwest;rotatable=0;whiteSpace=wrap;html=1;" parent="Ye0PGRufBINhVk7FUN7i-240" vertex="1">
          <mxGeometry y="30" width="140" height="30" as="geometry" />
        </mxCell>
        <mxCell id="Ye0PGRufBINhVk7FUN7i-242" value="Nombre" style="text;strokeColor=none;fillColor=none;align=left;verticalAlign=middle;spacingLeft=4;spacingRight=4;overflow=hidden;points=[[0,0.5],[1,0.5]];portConstraint=eastwest;rotatable=0;whiteSpace=wrap;html=1;" parent="Ye0PGRufBINhVk7FUN7i-240" vertex="1">
          <mxGeometry y="60" width="140" height="30" as="geometry" />
        </mxCell>
        <mxCell id="Ye0PGRufBINhVk7FUN7i-243" value="Apellido" style="text;strokeColor=none;fillColor=none;align=left;verticalAlign=middle;spacingLeft=4;spacingRight=4;overflow=hidden;points=[[0,0.5],[1,0.5]];portConstraint=eastwest;rotatable=0;whiteSpace=wrap;html=1;" parent="Ye0PGRufBINhVk7FUN7i-240" vertex="1">
          <mxGeometry y="90" width="140" height="30" as="geometry" />
        </mxCell>
        <mxCell id="Ye0PGRufBINhVk7FUN7i-244" value="Turno" style="text;strokeColor=none;fillColor=none;align=left;verticalAlign=middle;spacingLeft=4;spacingRight=4;overflow=hidden;points=[[0,0.5],[1,0.5]];portConstraint=eastwest;rotatable=0;whiteSpace=wrap;html=1;" parent="Ye0PGRufBINhVk7FUN7i-240" vertex="1">
          <mxGeometry y="120" width="140" height="30" as="geometry" />
        </mxCell>
        <mxCell id="Ye0PGRufBINhVk7FUN7i-245" value="Dirección" style="text;strokeColor=none;fillColor=none;align=left;verticalAlign=middle;spacingLeft=4;spacingRight=4;overflow=hidden;points=[[0,0.5],[1,0.5]];portConstraint=eastwest;rotatable=0;whiteSpace=wrap;html=1;" parent="Ye0PGRufBINhVk7FUN7i-240" vertex="1">
          <mxGeometry y="150" width="140" height="30" as="geometry" />
        </mxCell>
        <mxCell id="Ye0PGRufBINhVk7FUN7i-246" value="Telefono" style="text;strokeColor=none;fillColor=none;align=left;verticalAlign=middle;spacingLeft=4;spacingRight=4;overflow=hidden;points=[[0,0.5],[1,0.5]];portConstraint=eastwest;rotatable=0;whiteSpace=wrap;html=1;" parent="Ye0PGRufBINhVk7FUN7i-240" vertex="1">
          <mxGeometry y="180" width="140" height="30" as="geometry" />
        </mxCell>
        <mxCell id="Ye0PGRufBINhVk7FUN7i-248" value="" style="endArrow=none;html=1;rounded=0;" parent="1" edge="1">
          <mxGeometry width="50" height="50" relative="1" as="geometry">
            <mxPoint x="850" y="-800" as="sourcePoint" />
            <mxPoint x="1620" y="-860" as="targetPoint" />
            <Array as="points">
              <mxPoint x="850" y="-860" />
            </Array>
          </mxGeometry>
        </mxCell>
        <mxCell id="Ye0PGRufBINhVk7FUN7i-249" value="" style="endArrow=classic;html=1;rounded=0;" parent="1" edge="1">
          <mxGeometry width="50" height="50" relative="1" as="geometry">
            <mxPoint x="1620" y="-860" as="sourcePoint" />
            <mxPoint x="1620" y="-440" as="targetPoint" />
          </mxGeometry>
        </mxCell>
        <mxCell id="Ye0PGRufBINhVk7FUN7i-250" value="&lt;font style=&quot;font-size: 12px;&quot;&gt;Si&lt;/font&gt;" style="text;strokeColor=none;fillColor=none;html=1;fontSize=24;fontStyle=1;verticalAlign=middle;align=center;" parent="1" vertex="1">
          <mxGeometry x="1020" y="-230" width="100" height="40" as="geometry" />
        </mxCell>
        <mxCell id="Ye0PGRufBINhVk7FUN7i-251" value="" style="endArrow=classic;html=1;rounded=0;" parent="1" edge="1">
          <mxGeometry width="50" height="50" relative="1" as="geometry">
            <mxPoint x="1020" y="-310" as="sourcePoint" />
            <mxPoint x="760" y="-310" as="targetPoint" />
          </mxGeometry>
        </mxCell>
        <mxCell id="Ye0PGRufBINhVk7FUN7i-252" value="&lt;font style=&quot;font-size: 12px;&quot;&gt;No&lt;/font&gt;" style="text;strokeColor=none;fillColor=none;html=1;fontSize=24;fontStyle=1;verticalAlign=middle;align=center;" parent="1" vertex="1">
          <mxGeometry x="840" y="-310" width="100" height="40" as="geometry" />
        </mxCell>
        <mxCell id="Ye0PGRufBINhVk7FUN7i-257" value="Empleados" style="swimlane;fontStyle=0;childLayout=stackLayout;horizontal=1;startSize=30;horizontalStack=0;resizeParent=1;resizeParentMax=0;resizeLast=0;collapsible=1;marginBottom=0;whiteSpace=wrap;html=1;" parent="1" vertex="1">
          <mxGeometry x="610" y="-470" width="140" height="270" as="geometry" />
        </mxCell>
        <mxCell id="Ye0PGRufBINhVk7FUN7i-259" value="Nombre" style="text;strokeColor=none;fillColor=none;align=left;verticalAlign=middle;spacingLeft=4;spacingRight=4;overflow=hidden;points=[[0,0.5],[1,0.5]];portConstraint=eastwest;rotatable=0;whiteSpace=wrap;html=1;" parent="Ye0PGRufBINhVk7FUN7i-257" vertex="1">
          <mxGeometry y="30" width="140" height="30" as="geometry" />
        </mxCell>
        <mxCell id="Ye0PGRufBINhVk7FUN7i-260" value="Apellido" style="text;strokeColor=none;fillColor=none;align=left;verticalAlign=middle;spacingLeft=4;spacingRight=4;overflow=hidden;points=[[0,0.5],[1,0.5]];portConstraint=eastwest;rotatable=0;whiteSpace=wrap;html=1;" parent="Ye0PGRufBINhVk7FUN7i-257" vertex="1">
          <mxGeometry y="60" width="140" height="30" as="geometry" />
        </mxCell>
        <mxCell id="Ye0PGRufBINhVk7FUN7i-261" value="R.F.C" style="text;strokeColor=none;fillColor=none;align=left;verticalAlign=middle;spacingLeft=4;spacingRight=4;overflow=hidden;points=[[0,0.5],[1,0.5]];portConstraint=eastwest;rotatable=0;whiteSpace=wrap;html=1;" parent="Ye0PGRufBINhVk7FUN7i-257" vertex="1">
          <mxGeometry y="90" width="140" height="30" as="geometry" />
        </mxCell>
        <mxCell id="Ye0PGRufBINhVk7FUN7i-262" value="Turno" style="text;strokeColor=none;fillColor=none;align=left;verticalAlign=middle;spacingLeft=4;spacingRight=4;overflow=hidden;points=[[0,0.5],[1,0.5]];portConstraint=eastwest;rotatable=0;whiteSpace=wrap;html=1;" parent="Ye0PGRufBINhVk7FUN7i-257" vertex="1">
          <mxGeometry y="120" width="140" height="30" as="geometry" />
        </mxCell>
        <mxCell id="Ye0PGRufBINhVk7FUN7i-263" value="Dirección" style="text;strokeColor=none;fillColor=none;align=left;verticalAlign=middle;spacingLeft=4;spacingRight=4;overflow=hidden;points=[[0,0.5],[1,0.5]];portConstraint=eastwest;rotatable=0;whiteSpace=wrap;html=1;" parent="Ye0PGRufBINhVk7FUN7i-257" vertex="1">
          <mxGeometry y="150" width="140" height="30" as="geometry" />
        </mxCell>
        <mxCell id="Ye0PGRufBINhVk7FUN7i-264" value="Correo electrónico" style="text;strokeColor=none;fillColor=none;align=left;verticalAlign=middle;spacingLeft=4;spacingRight=4;overflow=hidden;points=[[0,0.5],[1,0.5]];portConstraint=eastwest;rotatable=0;whiteSpace=wrap;html=1;" parent="Ye0PGRufBINhVk7FUN7i-257" vertex="1">
          <mxGeometry y="180" width="140" height="30" as="geometry" />
        </mxCell>
        <mxCell id="Ye0PGRufBINhVk7FUN7i-265" value="Teléfono" style="text;strokeColor=none;fillColor=none;align=left;verticalAlign=middle;spacingLeft=4;spacingRight=4;overflow=hidden;points=[[0,0.5],[1,0.5]];portConstraint=eastwest;rotatable=0;whiteSpace=wrap;html=1;" parent="Ye0PGRufBINhVk7FUN7i-257" vertex="1">
          <mxGeometry y="210" width="140" height="30" as="geometry" />
        </mxCell>
        <mxCell id="Ye0PGRufBINhVk7FUN7i-266" value="No aceptado" style="text;strokeColor=none;fillColor=none;align=left;verticalAlign=middle;spacingLeft=4;spacingRight=4;overflow=hidden;points=[[0,0.5],[1,0.5]];portConstraint=eastwest;rotatable=0;whiteSpace=wrap;html=1;" parent="Ye0PGRufBINhVk7FUN7i-257" vertex="1">
          <mxGeometry y="240" width="140" height="30" as="geometry" />
        </mxCell>
        <mxCell id="Ye0PGRufBINhVk7FUN7i-269" value="" style="endArrow=classic;html=1;rounded=0;" parent="1" target="Ye0PGRufBINhVk7FUN7i-270" edge="1">
          <mxGeometry width="50" height="50" relative="1" as="geometry">
            <mxPoint x="930" y="-780" as="sourcePoint" />
            <mxPoint x="1010" y="-780" as="targetPoint" />
          </mxGeometry>
        </mxCell>
        <mxCell id="Ye0PGRufBINhVk7FUN7i-270" value="Realiza" style="rhombus;whiteSpace=wrap;html=1;" parent="1" vertex="1">
          <mxGeometry x="1000" y="-820" width="80" height="80" as="geometry" />
        </mxCell>
        <mxCell id="Ye0PGRufBINhVk7FUN7i-271" value="" style="endArrow=classic;html=1;rounded=0;" parent="1" edge="1">
          <mxGeometry width="50" height="50" relative="1" as="geometry">
            <mxPoint x="1080" y="-780" as="sourcePoint" />
            <mxPoint x="1150" y="-720" as="targetPoint" />
            <Array as="points">
              <mxPoint x="1150" y="-780" />
            </Array>
          </mxGeometry>
        </mxCell>
        <mxCell id="Ye0PGRufBINhVk7FUN7i-276" value="Recorte de empleados" style="swimlane;fontStyle=0;childLayout=stackLayout;horizontal=1;startSize=30;horizontalStack=0;resizeParent=1;resizeParentMax=0;resizeLast=0;collapsible=1;marginBottom=0;whiteSpace=wrap;html=1;" parent="1" vertex="1">
          <mxGeometry x="1080" y="-720" width="140" height="270" as="geometry" />
        </mxCell>
        <mxCell id="Ye0PGRufBINhVk7FUN7i-278" value="Nombre" style="text;strokeColor=none;fillColor=none;align=left;verticalAlign=middle;spacingLeft=4;spacingRight=4;overflow=hidden;points=[[0,0.5],[1,0.5]];portConstraint=eastwest;rotatable=0;whiteSpace=wrap;html=1;" parent="Ye0PGRufBINhVk7FUN7i-276" vertex="1">
          <mxGeometry y="30" width="140" height="30" as="geometry" />
        </mxCell>
        <mxCell id="Ye0PGRufBINhVk7FUN7i-279" value="Apellido" style="text;strokeColor=none;fillColor=none;align=left;verticalAlign=middle;spacingLeft=4;spacingRight=4;overflow=hidden;points=[[0,0.5],[1,0.5]];portConstraint=eastwest;rotatable=0;whiteSpace=wrap;html=1;" parent="Ye0PGRufBINhVk7FUN7i-276" vertex="1">
          <mxGeometry y="60" width="140" height="30" as="geometry" />
        </mxCell>
        <mxCell id="Ye0PGRufBINhVk7FUN7i-280" value="R.F.C" style="text;strokeColor=none;fillColor=none;align=left;verticalAlign=middle;spacingLeft=4;spacingRight=4;overflow=hidden;points=[[0,0.5],[1,0.5]];portConstraint=eastwest;rotatable=0;whiteSpace=wrap;html=1;" parent="Ye0PGRufBINhVk7FUN7i-276" vertex="1">
          <mxGeometry y="90" width="140" height="30" as="geometry" />
        </mxCell>
        <mxCell id="Ye0PGRufBINhVk7FUN7i-281" value="Turno" style="text;strokeColor=none;fillColor=none;align=left;verticalAlign=middle;spacingLeft=4;spacingRight=4;overflow=hidden;points=[[0,0.5],[1,0.5]];portConstraint=eastwest;rotatable=0;whiteSpace=wrap;html=1;" parent="Ye0PGRufBINhVk7FUN7i-276" vertex="1">
          <mxGeometry y="120" width="140" height="30" as="geometry" />
        </mxCell>
        <mxCell id="Ye0PGRufBINhVk7FUN7i-282" value="Dirección" style="text;strokeColor=none;fillColor=none;align=left;verticalAlign=middle;spacingLeft=4;spacingRight=4;overflow=hidden;points=[[0,0.5],[1,0.5]];portConstraint=eastwest;rotatable=0;whiteSpace=wrap;html=1;" parent="Ye0PGRufBINhVk7FUN7i-276" vertex="1">
          <mxGeometry y="150" width="140" height="30" as="geometry" />
        </mxCell>
        <mxCell id="Ye0PGRufBINhVk7FUN7i-283" value="Correo electrónico" style="text;strokeColor=none;fillColor=none;align=left;verticalAlign=middle;spacingLeft=4;spacingRight=4;overflow=hidden;points=[[0,0.5],[1,0.5]];portConstraint=eastwest;rotatable=0;whiteSpace=wrap;html=1;" parent="Ye0PGRufBINhVk7FUN7i-276" vertex="1">
          <mxGeometry y="180" width="140" height="30" as="geometry" />
        </mxCell>
        <mxCell id="Ye0PGRufBINhVk7FUN7i-284" value="Teléfono" style="text;strokeColor=none;fillColor=none;align=left;verticalAlign=middle;spacingLeft=4;spacingRight=4;overflow=hidden;points=[[0,0.5],[1,0.5]];portConstraint=eastwest;rotatable=0;whiteSpace=wrap;html=1;" parent="Ye0PGRufBINhVk7FUN7i-276" vertex="1">
          <mxGeometry y="210" width="140" height="30" as="geometry" />
        </mxCell>
        <mxCell id="Ye0PGRufBINhVk7FUN7i-285" value="Indemnización" style="text;strokeColor=none;fillColor=none;align=left;verticalAlign=middle;spacingLeft=4;spacingRight=4;overflow=hidden;points=[[0,0.5],[1,0.5]];portConstraint=eastwest;rotatable=0;whiteSpace=wrap;html=1;" parent="Ye0PGRufBINhVk7FUN7i-276" vertex="1">
          <mxGeometry y="240" width="140" height="30" as="geometry" />
        </mxCell>
        <mxCell id="Ye0PGRufBINhVk7FUN7i-288" value="" style="endArrow=none;html=1;rounded=0;" parent="1" edge="1">
          <mxGeometry width="50" height="50" relative="1" as="geometry">
            <mxPoint x="1670" y="185" as="sourcePoint" />
            <mxPoint x="2000" y="185" as="targetPoint" />
          </mxGeometry>
        </mxCell>
        <mxCell id="Ye0PGRufBINhVk7FUN7i-289" value="" style="endArrow=none;html=1;rounded=0;" parent="1" edge="1">
          <mxGeometry width="50" height="50" relative="1" as="geometry">
            <mxPoint x="2000" y="185" as="sourcePoint" />
            <mxPoint x="2000" y="-422" as="targetPoint" />
          </mxGeometry>
        </mxCell>
        <mxCell id="Ye0PGRufBINhVk7FUN7i-290" value="" style="endArrow=classic;html=1;rounded=0;entryX=0.993;entryY=0.052;entryDx=0;entryDy=0;entryPerimeter=0;" parent="1" target="Ye0PGRufBINhVk7FUN7i-233" edge="1">
          <mxGeometry width="50" height="50" relative="1" as="geometry">
            <mxPoint x="2000" y="-420" as="sourcePoint" />
            <mxPoint x="1830" y="-390" as="targetPoint" />
          </mxGeometry>
        </mxCell>
        <mxCell id="Ye0PGRufBINhVk7FUN7i-292" value="" style="endArrow=none;html=1;rounded=0;" parent="1" edge="1">
          <mxGeometry width="50" height="50" relative="1" as="geometry">
            <mxPoint x="1410" y="-590" as="sourcePoint" />
            <mxPoint x="1560" y="-640" as="targetPoint" />
            <Array as="points">
              <mxPoint x="1410" y="-640" />
            </Array>
          </mxGeometry>
        </mxCell>
        <mxCell id="Ye0PGRufBINhVk7FUN7i-293" value="" style="endArrow=classic;html=1;rounded=0;" parent="1" edge="1">
          <mxGeometry width="50" height="50" relative="1" as="geometry">
            <mxPoint x="1560" y="-640" as="sourcePoint" />
            <mxPoint x="1560" y="-440" as="targetPoint" />
          </mxGeometry>
        </mxCell>
        <mxCell id="Ye0PGRufBINhVk7FUN7i-294" value="" style="endArrow=none;html=1;rounded=0;" parent="1" target="Ye0PGRufBINhVk7FUN7i-295" edge="1">
          <mxGeometry width="50" height="50" relative="1" as="geometry">
            <mxPoint x="1650" y="-430" as="sourcePoint" />
            <mxPoint x="1830" y="-520" as="targetPoint" />
            <Array as="points">
              <mxPoint x="1650" y="-520" />
            </Array>
          </mxGeometry>
        </mxCell>
        <mxCell id="Ye0PGRufBINhVk7FUN7i-295" value="Se contacta" style="rhombus;whiteSpace=wrap;html=1;" parent="1" vertex="1">
          <mxGeometry x="1790" y="-560" width="80" height="80" as="geometry" />
        </mxCell>
        <mxCell id="Ye0PGRufBINhVk7FUN7i-296" value="" style="endArrow=classic;html=1;rounded=0;" parent="1" edge="1">
          <mxGeometry width="50" height="50" relative="1" as="geometry">
            <mxPoint x="1870" y="-520" as="sourcePoint" />
            <mxPoint x="1990" y="-520" as="targetPoint" />
          </mxGeometry>
        </mxCell>
        <mxCell id="Ye0PGRufBINhVk7FUN7i-305" value="Jefe" style="swimlane;fontStyle=0;childLayout=stackLayout;horizontal=1;startSize=30;horizontalStack=0;resizeParent=1;resizeParentMax=0;resizeLast=0;collapsible=1;marginBottom=0;whiteSpace=wrap;html=1;" parent="1" vertex="1">
          <mxGeometry x="2000" y="-670" width="140" height="180" as="geometry" />
        </mxCell>
        <mxCell id="Ye0PGRufBINhVk7FUN7i-306" value="Codigo" style="text;strokeColor=none;fillColor=none;align=left;verticalAlign=middle;spacingLeft=4;spacingRight=4;overflow=hidden;points=[[0,0.5],[1,0.5]];portConstraint=eastwest;rotatable=0;whiteSpace=wrap;html=1;" parent="Ye0PGRufBINhVk7FUN7i-305" vertex="1">
          <mxGeometry y="30" width="140" height="30" as="geometry" />
        </mxCell>
        <mxCell id="Ye0PGRufBINhVk7FUN7i-307" value="Nombre" style="text;strokeColor=none;fillColor=none;align=left;verticalAlign=middle;spacingLeft=4;spacingRight=4;overflow=hidden;points=[[0,0.5],[1,0.5]];portConstraint=eastwest;rotatable=0;whiteSpace=wrap;html=1;" parent="Ye0PGRufBINhVk7FUN7i-305" vertex="1">
          <mxGeometry y="60" width="140" height="30" as="geometry" />
        </mxCell>
        <mxCell id="Ye0PGRufBINhVk7FUN7i-308" value="Apellido" style="text;strokeColor=none;fillColor=none;align=left;verticalAlign=middle;spacingLeft=4;spacingRight=4;overflow=hidden;points=[[0,0.5],[1,0.5]];portConstraint=eastwest;rotatable=0;whiteSpace=wrap;html=1;" parent="Ye0PGRufBINhVk7FUN7i-305" vertex="1">
          <mxGeometry y="90" width="140" height="30" as="geometry" />
        </mxCell>
        <mxCell id="Ye0PGRufBINhVk7FUN7i-310" value="Dirección" style="text;strokeColor=none;fillColor=none;align=left;verticalAlign=middle;spacingLeft=4;spacingRight=4;overflow=hidden;points=[[0,0.5],[1,0.5]];portConstraint=eastwest;rotatable=0;whiteSpace=wrap;html=1;" parent="Ye0PGRufBINhVk7FUN7i-305" vertex="1">
          <mxGeometry y="120" width="140" height="30" as="geometry" />
        </mxCell>
        <mxCell id="Ye0PGRufBINhVk7FUN7i-311" value="Telefono" style="text;strokeColor=none;fillColor=none;align=left;verticalAlign=middle;spacingLeft=4;spacingRight=4;overflow=hidden;points=[[0,0.5],[1,0.5]];portConstraint=eastwest;rotatable=0;whiteSpace=wrap;html=1;" parent="Ye0PGRufBINhVk7FUN7i-305" vertex="1">
          <mxGeometry y="150" width="140" height="30" as="geometry" />
        </mxCell>
        <mxCell id="Ye0PGRufBINhVk7FUN7i-312" value="" style="endArrow=none;html=1;rounded=0;" parent="1" edge="1">
          <mxGeometry width="50" height="50" relative="1" as="geometry">
            <mxPoint x="240" y="870" as="sourcePoint" />
            <mxPoint x="240" y="670" as="targetPoint" />
          </mxGeometry>
        </mxCell>
        <mxCell id="Ye0PGRufBINhVk7FUN7i-313" value="" style="endArrow=none;html=1;rounded=0;" parent="1" edge="1">
          <mxGeometry width="50" height="50" relative="1" as="geometry">
            <mxPoint x="410" y="880" as="sourcePoint" />
            <mxPoint x="410" y="780" as="targetPoint" />
          </mxGeometry>
        </mxCell>
        <mxCell id="Ye0PGRufBINhVk7FUN7i-314" value="" style="endArrow=none;html=1;rounded=0;" parent="1" edge="1">
          <mxGeometry width="50" height="50" relative="1" as="geometry">
            <mxPoint x="570" y="880" as="sourcePoint" />
            <mxPoint x="570" y="760" as="targetPoint" />
          </mxGeometry>
        </mxCell>
        <mxCell id="Ye0PGRufBINhVk7FUN7i-315" value="" style="endArrow=none;html=1;rounded=0;" parent="1" edge="1">
          <mxGeometry width="50" height="50" relative="1" as="geometry">
            <mxPoint x="960" y="870" as="sourcePoint" />
            <mxPoint x="960" y="600" as="targetPoint" />
          </mxGeometry>
        </mxCell>
        <mxCell id="Ye0PGRufBINhVk7FUN7i-316" value="" style="endArrow=none;html=1;rounded=0;" parent="1" edge="1">
          <mxGeometry width="50" height="50" relative="1" as="geometry">
            <mxPoint x="240" y="880" as="sourcePoint" />
            <mxPoint x="960" y="880" as="targetPoint" />
          </mxGeometry>
        </mxCell>
        <mxCell id="Ye0PGRufBINhVk7FUN7i-317" value="" style="endArrow=classic;html=1;rounded=0;" parent="1" edge="1">
          <mxGeometry width="50" height="50" relative="1" as="geometry">
            <mxPoint x="590" y="880" as="sourcePoint" />
            <mxPoint x="590" y="940" as="targetPoint" />
          </mxGeometry>
        </mxCell>
        <mxCell id="Ye0PGRufBINhVk7FUN7i-318" value="Cierre de sesión" style="ellipse;whiteSpace=wrap;html=1;" parent="1" vertex="1">
          <mxGeometry x="530" y="940" width="120" height="80" as="geometry" />
        </mxCell>
        <mxCell id="Ye0PGRufBINhVk7FUN7i-320" value="" style="endArrow=none;html=1;rounded=0;entryX=0.042;entryY=0.2;entryDx=0;entryDy=0;entryPerimeter=0;" parent="1" target="Ye0PGRufBINhVk7FUN7i-318" edge="1">
          <mxGeometry width="50" height="50" relative="1" as="geometry">
            <mxPoint x="20" y="960" as="sourcePoint" />
            <mxPoint x="520" y="960" as="targetPoint" />
          </mxGeometry>
        </mxCell>
        <mxCell id="Ye0PGRufBINhVk7FUN7i-321" value="" style="endArrow=classic;html=1;rounded=0;entryX=0.036;entryY=1.133;entryDx=0;entryDy=0;entryPerimeter=0;" parent="1" edge="1">
          <mxGeometry width="50" height="50" relative="1" as="geometry">
            <mxPoint x="20" y="960" as="sourcePoint" />
            <mxPoint x="19.999999999999964" y="110.00000000000001" as="targetPoint" />
          </mxGeometry>
        </mxCell>
        <mxCell id="Ye0PGRufBINhVk7FUN7i-326" value="Área de Mercadotecnia" style="swimlane;fontStyle=0;childLayout=stackLayout;horizontal=1;startSize=30;horizontalStack=0;resizeParent=1;resizeParentMax=0;resizeLast=0;collapsible=1;marginBottom=0;whiteSpace=wrap;html=1;" parent="1" vertex="1">
          <mxGeometry x="1680" y="-900" width="140" height="210" as="geometry" />
        </mxCell>
        <mxCell id="Ye0PGRufBINhVk7FUN7i-327" value="No. de area" style="text;strokeColor=none;fillColor=none;align=left;verticalAlign=middle;spacingLeft=4;spacingRight=4;overflow=hidden;points=[[0,0.5],[1,0.5]];portConstraint=eastwest;rotatable=0;whiteSpace=wrap;html=1;" parent="Ye0PGRufBINhVk7FUN7i-326" vertex="1">
          <mxGeometry y="30" width="140" height="30" as="geometry" />
        </mxCell>
        <mxCell id="Ye0PGRufBINhVk7FUN7i-328" value="Nombre" style="text;strokeColor=none;fillColor=none;align=left;verticalAlign=middle;spacingLeft=4;spacingRight=4;overflow=hidden;points=[[0,0.5],[1,0.5]];portConstraint=eastwest;rotatable=0;whiteSpace=wrap;html=1;" parent="Ye0PGRufBINhVk7FUN7i-326" vertex="1">
          <mxGeometry y="60" width="140" height="30" as="geometry" />
        </mxCell>
        <mxCell id="Ye0PGRufBINhVk7FUN7i-329" value="Apellido" style="text;strokeColor=none;fillColor=none;align=left;verticalAlign=middle;spacingLeft=4;spacingRight=4;overflow=hidden;points=[[0,0.5],[1,0.5]];portConstraint=eastwest;rotatable=0;whiteSpace=wrap;html=1;" parent="Ye0PGRufBINhVk7FUN7i-326" vertex="1">
          <mxGeometry y="90" width="140" height="30" as="geometry" />
        </mxCell>
        <mxCell id="Ye0PGRufBINhVk7FUN7i-330" value="Turno" style="text;strokeColor=none;fillColor=none;align=left;verticalAlign=middle;spacingLeft=4;spacingRight=4;overflow=hidden;points=[[0,0.5],[1,0.5]];portConstraint=eastwest;rotatable=0;whiteSpace=wrap;html=1;" parent="Ye0PGRufBINhVk7FUN7i-326" vertex="1">
          <mxGeometry y="120" width="140" height="30" as="geometry" />
        </mxCell>
        <mxCell id="Ye0PGRufBINhVk7FUN7i-331" value="Dirección" style="text;strokeColor=none;fillColor=none;align=left;verticalAlign=middle;spacingLeft=4;spacingRight=4;overflow=hidden;points=[[0,0.5],[1,0.5]];portConstraint=eastwest;rotatable=0;whiteSpace=wrap;html=1;" parent="Ye0PGRufBINhVk7FUN7i-326" vertex="1">
          <mxGeometry y="150" width="140" height="30" as="geometry" />
        </mxCell>
        <mxCell id="Ye0PGRufBINhVk7FUN7i-332" value="Teléfono" style="text;strokeColor=none;fillColor=none;align=left;verticalAlign=middle;spacingLeft=4;spacingRight=4;overflow=hidden;points=[[0,0.5],[1,0.5]];portConstraint=eastwest;rotatable=0;whiteSpace=wrap;html=1;" parent="Ye0PGRufBINhVk7FUN7i-326" vertex="1">
          <mxGeometry y="180" width="140" height="30" as="geometry" />
        </mxCell>
        <mxCell id="Ye0PGRufBINhVk7FUN7i-333" value="" style="endArrow=classic;html=1;rounded=0;" parent="1" edge="1">
          <mxGeometry width="50" height="50" relative="1" as="geometry">
            <mxPoint x="1679" y="-820" as="sourcePoint" />
            <mxPoint x="1640" y="-440" as="targetPoint" />
            <Array as="points">
              <mxPoint x="1640" y="-820" />
            </Array>
          </mxGeometry>
        </mxCell>
        <mxCell id="Ye0PGRufBINhVk7FUN7i-334" value="" style="endArrow=classic;html=1;rounded=0;exitX=0;exitY=0.8;exitDx=0;exitDy=0;exitPerimeter=0;" parent="1" source="Ye0PGRufBINhVk7FUN7i-337" edge="1">
          <mxGeometry width="50" height="50" relative="1" as="geometry">
            <mxPoint x="2140" y="-525" as="sourcePoint" />
            <mxPoint x="2150" y="-590" as="targetPoint" />
          </mxGeometry>
        </mxCell>
        <mxCell id="Ye0PGRufBINhVk7FUN7i-335" value="Sub jefe" style="swimlane;fontStyle=0;childLayout=stackLayout;horizontal=1;startSize=30;horizontalStack=0;resizeParent=1;resizeParentMax=0;resizeLast=0;collapsible=1;marginBottom=0;whiteSpace=wrap;html=1;" parent="1" vertex="1">
          <mxGeometry x="2240" y="-675" width="140" height="180" as="geometry" />
        </mxCell>
        <mxCell id="Ye0PGRufBINhVk7FUN7i-336" value="Codigo" style="text;strokeColor=none;fillColor=none;align=left;verticalAlign=middle;spacingLeft=4;spacingRight=4;overflow=hidden;points=[[0,0.5],[1,0.5]];portConstraint=eastwest;rotatable=0;whiteSpace=wrap;html=1;" parent="Ye0PGRufBINhVk7FUN7i-335" vertex="1">
          <mxGeometry y="30" width="140" height="30" as="geometry" />
        </mxCell>
        <mxCell id="Ye0PGRufBINhVk7FUN7i-337" value="Nombre" style="text;strokeColor=none;fillColor=none;align=left;verticalAlign=middle;spacingLeft=4;spacingRight=4;overflow=hidden;points=[[0,0.5],[1,0.5]];portConstraint=eastwest;rotatable=0;whiteSpace=wrap;html=1;" parent="Ye0PGRufBINhVk7FUN7i-335" vertex="1">
          <mxGeometry y="60" width="140" height="30" as="geometry" />
        </mxCell>
        <mxCell id="Ye0PGRufBINhVk7FUN7i-338" value="Apellido" style="text;strokeColor=none;fillColor=none;align=left;verticalAlign=middle;spacingLeft=4;spacingRight=4;overflow=hidden;points=[[0,0.5],[1,0.5]];portConstraint=eastwest;rotatable=0;whiteSpace=wrap;html=1;" parent="Ye0PGRufBINhVk7FUN7i-335" vertex="1">
          <mxGeometry y="90" width="140" height="30" as="geometry" />
        </mxCell>
        <mxCell id="Ye0PGRufBINhVk7FUN7i-339" value="Dirección" style="text;strokeColor=none;fillColor=none;align=left;verticalAlign=middle;spacingLeft=4;spacingRight=4;overflow=hidden;points=[[0,0.5],[1,0.5]];portConstraint=eastwest;rotatable=0;whiteSpace=wrap;html=1;" parent="Ye0PGRufBINhVk7FUN7i-335" vertex="1">
          <mxGeometry y="120" width="140" height="30" as="geometry" />
        </mxCell>
        <mxCell id="Ye0PGRufBINhVk7FUN7i-340" value="Telefono" style="text;strokeColor=none;fillColor=none;align=left;verticalAlign=middle;spacingLeft=4;spacingRight=4;overflow=hidden;points=[[0,0.5],[1,0.5]];portConstraint=eastwest;rotatable=0;whiteSpace=wrap;html=1;" parent="Ye0PGRufBINhVk7FUN7i-335" vertex="1">
          <mxGeometry y="150" width="140" height="30" as="geometry" />
        </mxCell>
      </root>
    </mxGraphModel>
  </diagram>
</mxfile>
